M48
; DRILL file {KiCad 9.0.5} date 2025-11-15T09:05:51-0800
; FORMAT={-:-/ absolute / metric / decimal}
; #@! TF.CreationDate,2025-11-15T09:05:51-08:00
; #@! TF.GenerationSoftware,Kicad,Pcbnew,9.0.5
; #@! TF.FileFunction,Plated,1,2,PTH
FMAT,2
METRIC
; #@! TA.AperFunction,Plated,PTH,ViaDrill
T1C0.300
; #@! TA.AperFunction,Plated,PTH,ComponentDrill
T2C0.750
; #@! TA.AperFunction,Plated,PTH,ComponentDrill
T3C0.914
; #@! TA.AperFunction,Plated,PTH,ComponentDrill
T4C1.000
; #@! TA.AperFunction,Plated,PTH,ComponentDrill
T5C1.016
; #@! TA.AperFunction,Plated,PTH,ComponentDrill
T6C1.020
; #@! TA.AperFunction,Plated,PTH,ComponentDrill
T7C1.100
%
G90
G05
T1
X114.662Y-137.181
X116.8Y-106.51
X117.175Y-133.256
X119.546Y-91.802
X125.5Y-139.199
X126.321Y-80.586
X127.029Y-97.817
X128.222Y-96.678
X128.4Y-138.406
X128.959Y-114.987
X129.002Y-95.097
X129.753Y-100.541
X130.549Y-104.006
X131.325Y-88.655
X131.395Y-103.665
X131.617Y-100.575
X133.088Y-94.25
X133.885Y-108.226
X134.462Y-106.51
X134.599Y-109.345
X136.631Y-101.072
X151.497Y-112.594
X155.309Y-75.958
X158.264Y-143.143
X160.305Y-92.074
X163.2Y-67.878
T2
X113.8Y-103.0
X113.8Y-105.0
T3
X148.67Y-89.5
X148.67Y-97.12
X151.21Y-89.5
X151.21Y-97.12
X153.75Y-89.5
X153.75Y-97.12
T4
X124.0Y-102.71
X124.0Y-105.25
X154.7Y-103.75
X154.7Y-106.25
X154.7Y-108.75
T5
X114.42Y-57.605
X114.42Y-60.145
X114.42Y-62.685
X114.42Y-65.225
X114.42Y-67.765
X114.42Y-70.305
X114.42Y-72.845
X114.42Y-75.385
X114.42Y-77.925
X114.42Y-80.465
T6
X119.15Y-116.8
X119.15Y-142.2
X121.69Y-116.8
X121.69Y-142.2
X124.23Y-116.8
X124.23Y-142.2
X126.77Y-116.8
X126.77Y-142.2
X129.31Y-116.8
X129.31Y-142.2
X131.85Y-116.8
X131.85Y-142.2
X134.39Y-116.8
X134.39Y-142.2
X136.93Y-116.8
X136.93Y-142.2
X139.47Y-116.8
X139.47Y-142.2
X142.01Y-116.8
X142.01Y-142.2
X144.55Y-116.8
X144.55Y-142.2
X147.09Y-116.8
X147.09Y-142.2
X149.63Y-116.8
X149.63Y-142.2
X152.17Y-116.8
X152.17Y-142.2
X154.71Y-116.8
X154.71Y-142.2
X157.25Y-116.8
X157.25Y-142.2
X159.79Y-116.8
X159.79Y-142.2
X162.33Y-116.8
X162.33Y-142.2
X164.87Y-116.8
X164.87Y-142.2
T7
X118.5Y-89.5
X118.5Y-94.0
X125.0Y-89.5
X125.0Y-94.0
X135.75Y-89.75
X135.75Y-94.25
X142.25Y-89.75
X142.25Y-94.25
X159.75Y-90.0
X159.75Y-94.5
X166.25Y-90.0
X166.25Y-94.5
M30
