M48
; DRILL file {KiCad 9.0.5} date 2025-11-09T16:01:58-0800
; FORMAT={-:-/ absolute / metric / decimal}
; #@! TF.CreationDate,2025-11-09T16:01:58-08:00
; #@! TF.GenerationSoftware,Kicad,Pcbnew,9.0.5
; #@! TF.FileFunction,Plated,1,2,PTH
FMAT,2
METRIC
; #@! TA.AperFunction,Plated,PTH,ViaDrill
T1C0.300
; #@! TA.AperFunction,Plated,PTH,ComponentDrill
T2C0.750
; #@! TA.AperFunction,Plated,PTH,ComponentDrill
T3C1.000
; #@! TA.AperFunction,Plated,PTH,ComponentDrill
T4C1.016
; #@! TA.AperFunction,Plated,PTH,ComponentDrill
T5C1.020
; #@! TA.AperFunction,Plated,PTH,ComponentDrill
T6C1.100
%
G90
G05
T1
X129.547Y-73.293
X132.766Y-108.702
X135.816Y-94.077
X139.539Y-78.488
X152.0Y-136.0
X152.25Y-112.0
X153.673Y-70.324
X156.826Y-98.007
X157.102Y-100.695
X162.601Y-108.009
X165.027Y-118.929
X165.572Y-117.156
X165.573Y-93.805
X165.577Y-88.792
X166.279Y-118.666
X169.601Y-103.31
X173.923Y-129.126
X174.286Y-87.919
X174.344Y-94.059
X175.558Y-119.833
X177.259Y-95.923
X177.482Y-88.503
X177.482Y-108.923
X179.75Y-104.5
X179.946Y-96.182
X180.425Y-117.456
X180.458Y-129.708
X180.548Y-81.628
X181.0Y-80.25
X181.0Y-98.25
X181.023Y-88.139
X181.073Y-85.927
X182.5Y-81.5
X183.36Y-126.739
X183.613Y-93.698
X183.75Y-80.25
X184.69Y-87.998
X185.562Y-118.357
X185.75Y-87.0
X186.404Y-99.618
X186.41Y-94.077
X186.41Y-111.893
X186.41Y-121.25
X186.844Y-84.297
X186.998Y-124.24
X187.25Y-92.25
T2
X160.25Y-125.8
X162.25Y-125.8
T3
X168.95Y-124.25
X168.95Y-126.75
X168.95Y-129.25
X172.377Y-82.15
X172.377Y-84.69
T4
X133.532Y-50.505
X133.532Y-53.045
X133.532Y-55.585
X133.532Y-58.125
X133.532Y-60.665
X133.532Y-63.205
X133.532Y-65.745
X133.532Y-68.285
X133.532Y-70.825
X133.532Y-73.365
T5
X129.35Y-90.9
X129.35Y-93.44
X129.35Y-95.98
X129.35Y-98.52
X129.35Y-101.06
X129.35Y-103.6
X129.35Y-106.14
X129.35Y-108.68
X129.35Y-111.22
X129.35Y-113.76
X129.35Y-116.3
X129.35Y-118.84
X129.35Y-121.38
X129.35Y-123.92
X129.35Y-126.46
X129.35Y-129.0
X129.35Y-131.54
X129.35Y-134.08
X129.35Y-136.62
X154.75Y-90.9
X154.75Y-93.44
X154.75Y-95.98
X154.75Y-98.52
X154.75Y-101.06
X154.75Y-103.6
X154.75Y-106.14
X154.75Y-108.68
X154.75Y-111.22
X154.75Y-113.76
X154.75Y-116.3
X154.75Y-118.84
X154.75Y-121.38
X154.75Y-123.92
X154.75Y-126.46
X154.75Y-129.0
X154.75Y-131.54
X154.75Y-134.08
X154.75Y-136.62
T6
X161.558Y-81.88
X161.558Y-86.38
X161.558Y-90.43
X161.558Y-94.93
X161.558Y-98.98
X161.558Y-103.48
X168.058Y-81.88
X168.058Y-86.38
X168.058Y-90.43
X168.058Y-94.93
X168.058Y-98.98
X168.058Y-103.48
M30
