%TF.GenerationSoftware,KiCad,Pcbnew,9.0.5*%
%TF.CreationDate,2025-11-09T15:59:44-08:00*%
%TF.ProjectId,Radio,52616469-6f2e-46b6-9963-61645f706362,rev?*%
%TF.SameCoordinates,Original*%
%TF.FileFunction,Copper,L1,Top*%
%TF.FilePolarity,Positive*%
%FSLAX46Y46*%
G04 Gerber Fmt 4.6, Leading zero omitted, Abs format (unit mm)*
G04 Created by KiCad (PCBNEW 9.0.5) date 2025-11-09 15:59:44*
%MOMM*%
%LPD*%
G01*
G04 APERTURE LIST*
G04 Aperture macros list*
%AMRoundRect*
0 Rectangle with rounded corners*
0 $1 Rounding radius*
0 $2 $3 $4 $5 $6 $7 $8 $9 X,Y pos of 4 corners*
0 Add a 4 corners polygon primitive as box body*
4,1,4,$2,$3,$4,$5,$6,$7,$8,$9,$2,$3,0*
0 Add four circle primitives for the rounded corners*
1,1,$1+$1,$2,$3*
1,1,$1+$1,$4,$5*
1,1,$1+$1,$6,$7*
1,1,$1+$1,$8,$9*
0 Add four rect primitives between the rounded corners*
20,1,$1+$1,$2,$3,$4,$5,0*
20,1,$1+$1,$4,$5,$6,$7,0*
20,1,$1+$1,$6,$7,$8,$9,0*
20,1,$1+$1,$8,$9,$2,$3,0*%
%AMFreePoly0*
4,1,25,-1.500000,1.420000,-1.360000,1.280000,-1.205000,1.155000,-1.035000,1.045000,-0.860000,0.950000,-0.675000,0.875000,-0.480000,0.820000,-0.280000,0.780000,-0.085000,0.765000,0.085000,0.765000,0.280000,0.780000,0.480000,0.820000,0.675000,0.875000,0.860000,0.950000,1.035000,1.045000,1.205000,1.155000,1.360000,1.280000,1.500000,1.420000,1.645000,1.595000,3.555000,1.595000,
3.555000,-0.755000,-3.555000,-0.755000,-3.555000,1.595000,-1.645000,1.595000,-1.500000,1.420000,-1.500000,1.420000,$1*%
G04 Aperture macros list end*
%TA.AperFunction,Conductor*%
%ADD10C,0.200000*%
%TD*%
%TA.AperFunction,SMDPad,CuDef*%
%ADD11RoundRect,0.225000X-0.225000X-0.250000X0.225000X-0.250000X0.225000X0.250000X-0.225000X0.250000X0*%
%TD*%
%TA.AperFunction,ComponentPad*%
%ADD12RoundRect,0.250000X-0.350000X-0.625000X0.350000X-0.625000X0.350000X0.625000X-0.350000X0.625000X0*%
%TD*%
%TA.AperFunction,ComponentPad*%
%ADD13O,1.200000X1.750000*%
%TD*%
%TA.AperFunction,ComponentPad*%
%ADD14C,2.000000*%
%TD*%
%TA.AperFunction,ComponentPad*%
%ADD15R,1.778000X1.778000*%
%TD*%
%TA.AperFunction,ComponentPad*%
%ADD16C,1.778000*%
%TD*%
%TA.AperFunction,SMDPad,CuDef*%
%ADD17RoundRect,0.062500X-0.350000X-0.062500X0.350000X-0.062500X0.350000X0.062500X-0.350000X0.062500X0*%
%TD*%
%TA.AperFunction,SMDPad,CuDef*%
%ADD18RoundRect,0.062500X-0.062500X-0.350000X0.062500X-0.350000X0.062500X0.350000X-0.062500X0.350000X0*%
%TD*%
%TA.AperFunction,HeatsinkPad*%
%ADD19R,1.230000X1.230000*%
%TD*%
%TA.AperFunction,SMDPad,CuDef*%
%ADD20RoundRect,0.200000X-0.200000X-0.275000X0.200000X-0.275000X0.200000X0.275000X-0.200000X0.275000X0*%
%TD*%
%TA.AperFunction,SMDPad,CuDef*%
%ADD21RoundRect,0.075000X-0.312500X-0.075000X0.312500X-0.075000X0.312500X0.075000X-0.312500X0.075000X0*%
%TD*%
%TA.AperFunction,SMDPad,CuDef*%
%ADD22RoundRect,0.075000X-0.075000X-0.312500X0.075000X-0.312500X0.075000X0.312500X-0.075000X0.312500X0*%
%TD*%
%TA.AperFunction,HeatsinkPad*%
%ADD23R,4.800000X4.800000*%
%TD*%
%TA.AperFunction,WasherPad*%
%ADD24C,4.000000*%
%TD*%
%TA.AperFunction,ComponentPad*%
%ADD25C,1.800000*%
%TD*%
%TA.AperFunction,SMDPad,CuDef*%
%ADD26RoundRect,0.250000X-2.050000X-0.300000X2.050000X-0.300000X2.050000X0.300000X-2.050000X0.300000X0*%
%TD*%
%TA.AperFunction,SMDPad,CuDef*%
%ADD27RoundRect,0.250002X-4.449998X-5.149998X4.449998X-5.149998X4.449998X5.149998X-4.449998X5.149998X0*%
%TD*%
%TA.AperFunction,SMDPad,CuDef*%
%ADD28R,0.400000X0.600000*%
%TD*%
%TA.AperFunction,ComponentPad*%
%ADD29R,1.530000X1.530000*%
%TD*%
%TA.AperFunction,ComponentPad*%
%ADD30C,1.530000*%
%TD*%
%TA.AperFunction,ComponentPad*%
%ADD31R,1.700000X1.700000*%
%TD*%
%TA.AperFunction,ComponentPad*%
%ADD32C,1.700000*%
%TD*%
%TA.AperFunction,SMDPad,CuDef*%
%ADD33C,1.730000*%
%TD*%
%TA.AperFunction,SMDPad,CuDef*%
%ADD34FreePoly0,180.000000*%
%TD*%
%TA.AperFunction,SMDPad,CuDef*%
%ADD35FreePoly0,0.000000*%
%TD*%
%TA.AperFunction,ViaPad*%
%ADD36C,0.600000*%
%TD*%
G04 APERTURE END LIST*
D10*
%TO.N,Net-(U2-MISO)*%
X180500000Y-100750000D02*
X180500000Y-105750000D01*
%TO.N,Net-(U3-DIN)*%
X180000000Y-107250000D02*
X181000000Y-106250000D01*
X181000000Y-106250000D02*
X181000000Y-98250000D01*
%TD*%
D11*
%TO.P,C2,1*%
%TO.N,Net-(U3-OUTP)*%
X185225000Y-119750000D03*
%TO.P,C2,2*%
%TO.N,Net-(C2-Pad2)*%
X186775000Y-119750000D03*
%TD*%
D12*
%TO.P,BT1,1,+*%
%TO.N,Net-(BT1-+)*%
X160250000Y-125800000D03*
D13*
%TO.P,BT1,2,-*%
%TO.N,GND*%
X162250000Y-125800000D03*
%TD*%
D14*
%TO.P,SW2,1,1*%
%TO.N,Net-(U6-IO34)*%
X161557500Y-90430000D03*
X168057500Y-90430000D03*
%TO.P,SW2,2,2*%
%TO.N,GND*%
X161557500Y-94930000D03*
X168057500Y-94930000D03*
%TD*%
D11*
%TO.P,C3,1*%
%TO.N,+3V3*%
X185200000Y-122750000D03*
%TO.P,C3,2*%
%TO.N,Net-(U4-VO)*%
X186750000Y-122750000D03*
%TD*%
D15*
%TO.P,U5,1,LITE*%
%TO.N,+3V3*%
X133532500Y-50505000D03*
D16*
%TO.P,U5,2,MISO*%
%TO.N,unconnected-(U5-MISO-Pad2)*%
X133532500Y-53045000D03*
%TO.P,U5,3,SCK*%
%TO.N,Net-(U5-SCK)*%
X133532500Y-55585000D03*
%TO.P,U5,4,MOSI*%
%TO.N,Net-(U5-MOSI)*%
X133532500Y-58125000D03*
%TO.P,U5,5,TFT_CS*%
%TO.N,Net-(U5-TFT_CS)*%
X133532500Y-60665000D03*
%TO.P,U5,6,CARD_CS*%
%TO.N,unconnected-(U5-CARD_CS-Pad6)*%
X133532500Y-63205000D03*
%TO.P,U5,7,D/C*%
%TO.N,Net-(U5-D{slash}C)*%
X133532500Y-65745000D03*
%TO.P,U5,8,RESET*%
%TO.N,Net-(U5-RESET)*%
X133532500Y-68285000D03*
%TO.P,U5,9,VCC*%
%TO.N,+3V3*%
X133532500Y-70825000D03*
%TO.P,U5,10,GND*%
%TO.N,GND*%
X133532500Y-73365000D03*
%TD*%
D17*
%TO.P,U3,1,DIN*%
%TO.N,Net-(U3-DIN)*%
X182502500Y-83440000D03*
%TO.P,U3,2,GAIN_SLOT*%
%TO.N,GND*%
X182502500Y-83940000D03*
%TO.P,U3,3,GND*%
X182502500Y-84440000D03*
%TO.P,U3,4,~{SD_MODE}*%
X182502500Y-84940000D03*
D18*
%TO.P,U3,5,NC*%
%TO.N,unconnected-(U3-NC-Pad5)*%
X183190000Y-85627500D03*
%TO.P,U3,6,NC*%
%TO.N,unconnected-(U3-NC-Pad6)*%
X183690000Y-85627500D03*
%TO.P,U3,7,VDD*%
%TO.N,+3V3*%
X184190000Y-85627500D03*
%TO.P,U3,8,VDD*%
X184690000Y-85627500D03*
D17*
%TO.P,U3,9,OUTP*%
%TO.N,Net-(U3-OUTP)*%
X185377500Y-84940000D03*
%TO.P,U3,10,OUTN*%
%TO.N,Net-(U3-OUTN)*%
X185377500Y-84440000D03*
%TO.P,U3,11,GND*%
%TO.N,GND*%
X185377500Y-83940000D03*
%TO.P,U3,12,NC*%
%TO.N,unconnected-(U3-NC-Pad12)*%
X185377500Y-83440000D03*
D18*
%TO.P,U3,13,NC*%
%TO.N,unconnected-(U3-NC-Pad13)*%
X184690000Y-82752500D03*
%TO.P,U3,14,LRCLK*%
%TO.N,Net-(U3-LRCLK)*%
X184190000Y-82752500D03*
%TO.P,U3,15,GND*%
%TO.N,GND*%
X183690000Y-82752500D03*
%TO.P,U3,16,BCLK*%
%TO.N,Net-(U3-BCLK)*%
X183190000Y-82752500D03*
D19*
%TO.P,U3,17,PAD*%
%TO.N,unconnected-(U3-PAD-Pad17)*%
X183940000Y-84190000D03*
%TD*%
D20*
%TO.P,R1,1*%
%TO.N,+3V3*%
X185175000Y-126250000D03*
%TO.P,R1,2*%
%TO.N,Net-(U6-EN)*%
X186825000Y-126250000D03*
%TD*%
D21*
%TO.P,U2,1,VBAT1*%
%TO.N,+3V3*%
X172412500Y-97950000D03*
%TO.P,U2,2,VR_ANA*%
%TO.N,unconnected-(U2-VR_ANA-Pad2)*%
X172412500Y-98600000D03*
%TO.P,U2,3,VR_DIG*%
%TO.N,unconnected-(U2-VR_DIG-Pad3)*%
X172412500Y-99250000D03*
%TO.P,U2,4,XTA*%
%TO.N,unconnected-(U2-XTA-Pad4)*%
X172412500Y-99900000D03*
%TO.P,U2,5,XTB*%
%TO.N,unconnected-(U2-XTB-Pad5)*%
X172412500Y-100550000D03*
%TO.P,U2,6,~{RESET}*%
%TO.N,Net-(U2-~{RESET})*%
X172412500Y-101200000D03*
%TO.P,U2,7,NC*%
%TO.N,unconnected-(U2-NC-Pad7)*%
X172412500Y-101850000D03*
D22*
%TO.P,U2,8,NC*%
%TO.N,unconnected-(U2-NC-Pad8)*%
X173450000Y-102887500D03*
%TO.P,U2,9,DIO0*%
%TO.N,Net-(U2-DIO0)*%
X174100000Y-102887500D03*
%TO.P,U2,10,DIO1*%
%TO.N,unconnected-(U2-DIO1-Pad10)*%
X174750000Y-102887500D03*
%TO.P,U2,11,DIO2*%
%TO.N,unconnected-(U2-DIO2-Pad11)*%
X175400000Y-102887500D03*
%TO.P,U2,12,DIO3*%
%TO.N,unconnected-(U2-DIO3-Pad12)*%
X176050000Y-102887500D03*
%TO.P,U2,13,DIO4*%
%TO.N,unconnected-(U2-DIO4-Pad13)*%
X176700000Y-102887500D03*
%TO.P,U2,14,DIO5*%
%TO.N,unconnected-(U2-DIO5-Pad14)*%
X177350000Y-102887500D03*
D21*
%TO.P,U2,15,VBAT2*%
%TO.N,unconnected-(U2-VBAT2-Pad15)*%
X178387500Y-101850000D03*
%TO.P,U2,16,GND*%
%TO.N,GND*%
X178387500Y-101200000D03*
%TO.P,U2,17,SCK*%
%TO.N,Net-(U2-SCK)*%
X178387500Y-100550000D03*
%TO.P,U2,18,MISO*%
%TO.N,Net-(U2-MISO)*%
X178387500Y-99900000D03*
%TO.P,U2,19,MOSI*%
%TO.N,Net-(U2-MOSI)*%
X178387500Y-99250000D03*
%TO.P,U2,20,NSS*%
%TO.N,Net-(U2-NSS)*%
X178387500Y-98600000D03*
%TO.P,U2,21,RF_MOD*%
%TO.N,unconnected-(U2-RF_MOD-Pad21)*%
X178387500Y-97950000D03*
D22*
%TO.P,U2,22,GND*%
%TO.N,GND*%
X177350000Y-96912500D03*
%TO.P,U2,23,RXTX*%
%TO.N,unconnected-(U2-RXTX-Pad23)*%
X176700000Y-96912500D03*
%TO.P,U2,24,RFO*%
%TO.N,Net-(J1-In)*%
X176050000Y-96912500D03*
%TO.P,U2,25,RFI*%
%TO.N,unconnected-(U2-RFI-Pad25)*%
X175400000Y-96912500D03*
%TO.P,U2,26,GND*%
%TO.N,GND*%
X174750000Y-96912500D03*
%TO.P,U2,27,PA_BOOST*%
%TO.N,unconnected-(U2-PA_BOOST-Pad27)*%
X174100000Y-96912500D03*
%TO.P,U2,28,VR_PA*%
%TO.N,unconnected-(U2-VR_PA-Pad28)*%
X173450000Y-96912500D03*
D23*
%TO.P,U2,29,GND*%
%TO.N,GND*%
X175400000Y-99900000D03*
%TD*%
D24*
%TO.P,RV1,*%
%TO.N,*%
X175950000Y-122350000D03*
X175950000Y-131150000D03*
D25*
%TO.P,RV1,1,1*%
%TO.N,+3V3*%
X168950000Y-129250000D03*
%TO.P,RV1,2,2*%
%TO.N,Net-(U6-IO16)*%
X168950000Y-126750000D03*
%TO.P,RV1,3,3*%
%TO.N,GND*%
X168950000Y-124250000D03*
%TD*%
D14*
%TO.P,SW3,1,1*%
%TO.N,Net-(U6-IO35)*%
X161557500Y-98980000D03*
X168057500Y-98980000D03*
%TO.P,SW3,2,2*%
%TO.N,GND*%
X161557500Y-103480000D03*
X168057500Y-103480000D03*
%TD*%
D26*
%TO.P,U4,1,VI*%
%TO.N,Net-(U4-VI)*%
X161775000Y-109325000D03*
%TO.P,U4,2,GND*%
%TO.N,GND*%
X161775000Y-111025000D03*
%TO.P,U4,3,VO*%
%TO.N,Net-(U4-VO)*%
X161775000Y-112725000D03*
%TO.P,U4,4*%
%TO.N,N/C*%
X161775000Y-114425000D03*
%TO.P,U4,5*%
X161775000Y-116125000D03*
D27*
%TO.P,U4,6*%
X170925000Y-112725000D03*
%TD*%
D28*
%TO.P,MK2,1,SCK*%
%TO.N,Net-(MK2-SCK)*%
X180000000Y-82840000D03*
%TO.P,MK2,2,SD*%
%TO.N,Net-(MK2-SD)*%
X178950000Y-82840000D03*
%TO.P,MK2,3,WS*%
%TO.N,Net-(MK2-WS)*%
X177900000Y-82840000D03*
%TO.P,MK2,4,L/R*%
%TO.N,GND*%
X176850000Y-82840000D03*
%TO.P,MK2,6,GND*%
X176850000Y-85500000D03*
%TO.P,MK2,7,VDD*%
%TO.N,+3V3*%
X177900000Y-85500000D03*
%TO.P,MK2,8,CHIPEN*%
X178950000Y-85500000D03*
%TO.P,MK2,9,GND*%
%TO.N,GND*%
X180000000Y-85500000D03*
%TD*%
D11*
%TO.P,C1,1*%
%TO.N,Net-(BT1-+)*%
X185225000Y-116750000D03*
%TO.P,C1,2*%
%TO.N,Net-(U4-VI)*%
X186775000Y-116750000D03*
%TD*%
D29*
%TO.P,U6,1,3V3*%
%TO.N,+3V3*%
X129350000Y-90900000D03*
D30*
%TO.P,U6,2,EN*%
%TO.N,Net-(U6-EN)*%
X129350000Y-93440000D03*
%TO.P,U6,3,SENSOR_VP*%
%TO.N,unconnected-(U6-SENSOR_VP-Pad3)*%
X129350000Y-95980000D03*
%TO.P,U6,4,SENSOR_VN*%
%TO.N,unconnected-(U6-SENSOR_VN-Pad4)*%
X129350000Y-98520000D03*
%TO.P,U6,5,IO34*%
%TO.N,Net-(U6-IO34)*%
X129350000Y-101060000D03*
%TO.P,U6,6,IO35*%
%TO.N,Net-(U6-IO35)*%
X129350000Y-103600000D03*
%TO.P,U6,7,IO32*%
%TO.N,Net-(U6-IO32)*%
X129350000Y-106140000D03*
%TO.P,U6,8,IO33*%
%TO.N,Net-(MK2-WS)*%
X129350000Y-108680000D03*
%TO.P,U6,9,IO25*%
%TO.N,Net-(MK2-SCK)*%
X129350000Y-111220000D03*
%TO.P,U6,10,IO26*%
%TO.N,Net-(MK2-SD)*%
X129350000Y-113760000D03*
%TO.P,U6,11,IO27*%
%TO.N,unconnected-(U6-IO27-Pad11)*%
X129350000Y-116300000D03*
%TO.P,U6,12,IO14*%
%TO.N,Net-(U2-~{RESET})*%
X129350000Y-118840000D03*
%TO.P,U6,13,IO12*%
%TO.N,Net-(U5-MOSI)*%
X129350000Y-121380000D03*
%TO.P,U6,14,GND1*%
%TO.N,GND*%
X129350000Y-123920000D03*
%TO.P,U6,15,IO13*%
%TO.N,Net-(U5-D{slash}C)*%
X129350000Y-126460000D03*
%TO.P,U6,16,SD2*%
%TO.N,unconnected-(U6-SD2-Pad16)*%
X129350000Y-129000000D03*
%TO.P,U6,17,SD3*%
%TO.N,Net-(U3-LRCLK)*%
X129350000Y-131540000D03*
%TO.P,U6,18,CMD*%
%TO.N,unconnected-(U6-CMD-Pad18)*%
X129350000Y-134080000D03*
%TO.P,U6,19,EXT_5V*%
%TO.N,unconnected-(U6-EXT_5V-Pad19)*%
X129350000Y-136620000D03*
%TO.P,U6,20,CLK*%
%TO.N,Net-(U5-SCK)*%
X154750000Y-136620000D03*
%TO.P,U6,21,SD0*%
%TO.N,unconnected-(U6-SD0-Pad21)*%
X154750000Y-134080000D03*
%TO.P,U6,22,SD1*%
%TO.N,Net-(U3-DIN)*%
X154750000Y-131540000D03*
%TO.P,U6,23,IO15*%
%TO.N,Net-(U5-RESET)*%
X154750000Y-129000000D03*
%TO.P,U6,24,IO2*%
%TO.N,Net-(U3-BCLK)*%
X154750000Y-126460000D03*
%TO.P,U6,25,IO0*%
%TO.N,unconnected-(U6-IO0-Pad25)*%
X154750000Y-123920000D03*
%TO.P,U6,26,IO4*%
%TO.N,Net-(U2-DIO0)*%
X154750000Y-121380000D03*
%TO.P,U6,27,IO16*%
%TO.N,Net-(U6-IO16)*%
X154750000Y-118840000D03*
%TO.P,U6,28,IO17*%
%TO.N,unconnected-(U6-IO17-Pad28)*%
X154750000Y-116300000D03*
%TO.P,U6,29,IO5*%
%TO.N,Net-(U2-NSS)*%
X154750000Y-113760000D03*
%TO.P,U6,30,IO18*%
%TO.N,Net-(U2-SCK)*%
X154750000Y-111220000D03*
%TO.P,U6,31,IO19*%
%TO.N,Net-(U2-MISO)*%
X154750000Y-108680000D03*
%TO.P,U6,32,GND2*%
%TO.N,unconnected-(U6-GND2-Pad32)*%
X154750000Y-106140000D03*
%TO.P,U6,33,IO21*%
%TO.N,unconnected-(U6-IO21-Pad33)*%
X154750000Y-103600000D03*
%TO.P,U6,34,RXD0*%
%TO.N,unconnected-(U6-RXD0-Pad34)*%
X154750000Y-101060000D03*
%TO.P,U6,35,TXD0*%
%TO.N,unconnected-(U6-TXD0-Pad35)*%
X154750000Y-98520000D03*
%TO.P,U6,36,IO22*%
%TO.N,Net-(U5-TFT_CS)*%
X154750000Y-95980000D03*
%TO.P,U6,37,IO23*%
%TO.N,Net-(U2-MOSI)*%
X154750000Y-93440000D03*
%TO.P,U6,38,GND3*%
%TO.N,unconnected-(U6-GND3-Pad38)*%
X154750000Y-90900000D03*
%TD*%
D31*
%TO.P,LS1,1,1*%
%TO.N,Net-(C2-Pad2)*%
X172377500Y-82150000D03*
D32*
%TO.P,LS1,2,2*%
%TO.N,Net-(U3-OUTN)*%
X172377500Y-84690000D03*
%TD*%
D14*
%TO.P,SW1,1,1*%
%TO.N,Net-(U6-IO32)*%
X161557500Y-81880000D03*
X168057500Y-81880000D03*
%TO.P,SW1,2,2*%
%TO.N,GND*%
X161557500Y-86380000D03*
X168057500Y-86380000D03*
%TD*%
D33*
%TO.P,J1,1,In*%
%TO.N,Net-(J1-In)*%
X188750000Y-99500000D03*
D34*
%TO.P,J1,2,Ext*%
%TO.N,Net-(AE1-A)*%
X188750000Y-96700000D03*
D35*
X188750000Y-102300000D03*
%TD*%
D36*
%TO.N,GND*%
X183612600Y-93698100D03*
X181000000Y-80250000D03*
X183750000Y-80250000D03*
X174343900Y-94058900D03*
%TO.N,Net-(BT1-+)*%
X186998000Y-124240000D03*
%TO.N,Net-(U4-VI)*%
X162601000Y-108009000D03*
X186410000Y-111893000D03*
%TO.N,Net-(C2-Pad2)*%
X185561600Y-118356900D03*
X181073000Y-85927300D03*
X180425400Y-117456200D03*
%TO.N,Net-(U3-OUTP)*%
X187250000Y-92250000D03*
X185750000Y-87000000D03*
%TO.N,Net-(U4-VO)*%
X166279000Y-118666000D03*
X186410000Y-121250000D03*
%TO.N,+3V3*%
X180457900Y-129707800D03*
X129547000Y-73293000D03*
X184690000Y-87997600D03*
X177481800Y-88503100D03*
%TO.N,Net-(U3-OUTN)*%
X186844000Y-84296900D03*
%TO.N,Net-(MK2-SD)*%
X169601000Y-103310000D03*
%TO.N,Net-(MK2-SCK)*%
X139538800Y-78488400D03*
X132766200Y-108702400D03*
X180548000Y-81628000D03*
%TO.N,Net-(MK2-WS)*%
X174286000Y-87919400D03*
%TO.N,Net-(U6-EN)*%
X186410000Y-94077400D03*
X165577400Y-88792400D03*
X165573400Y-93805000D03*
%TO.N,Net-(U6-IO16)*%
X165027400Y-118928700D03*
%TO.N,Net-(U6-IO32)*%
X157101800Y-100695200D03*
%TO.N,Net-(U2-MISO)*%
X177482000Y-108923000D03*
%TO.N,Net-(U2-NSS)*%
X179946400Y-96182200D03*
X156826100Y-98006900D03*
%TO.N,Net-(U2-SCK)*%
X179750000Y-104500000D03*
X152000000Y-136000000D03*
X152250000Y-112000000D03*
%TO.N,Net-(U2-~{RESET})*%
X165572000Y-117156000D03*
%TO.N,Net-(U2-DIO0)*%
X175558000Y-119833000D03*
%TO.N,Net-(U2-MOSI)*%
X181023000Y-88139000D03*
%TO.N,Net-(U3-DIN)*%
X182500000Y-81500000D03*
X173923000Y-129126000D03*
X181000000Y-98250000D03*
%TO.N,Net-(U3-LRCLK)*%
X183360000Y-126739000D03*
%TO.N,Net-(U5-TFT_CS)*%
X135816000Y-94077400D03*
%TO.N,Net-(U5-RESET)*%
X153673000Y-70323800D03*
%TO.N,Net-(J1-In)*%
X186404000Y-99618100D03*
X177259000Y-95923000D03*
%TD*%
D10*
%TO.N,GND*%
X177949000Y-84401400D02*
X176850000Y-85500000D01*
X182502000Y-83940000D02*
X182502000Y-84052600D01*
X186705100Y-83353700D02*
X186118800Y-83940000D01*
X177350000Y-97950000D02*
X177350000Y-96912500D01*
X168057500Y-94930000D02*
X168058000Y-94930000D01*
X161302100Y-103735700D02*
X161302100Y-103091000D01*
X183750000Y-80250000D02*
X183750000Y-81000000D01*
X174750000Y-96912500D02*
X174750000Y-94465000D01*
X168057500Y-103479500D02*
X168057500Y-103480000D01*
X178387500Y-101200000D02*
X178043500Y-101200000D01*
X181149000Y-83351000D02*
X181149000Y-80399000D01*
X161775000Y-111025000D02*
X160332000Y-111025000D01*
X182502000Y-84898300D02*
X182502000Y-84440000D01*
X180000000Y-85500000D02*
X180000000Y-94262500D01*
X174750000Y-94465000D02*
X174343900Y-94058900D01*
X177765000Y-83550400D02*
X177949000Y-83733800D01*
X161557500Y-94930000D02*
X161557500Y-92270900D01*
X177949000Y-83733800D02*
X177949000Y-84401400D01*
X168058000Y-103479000D02*
X168058000Y-103480000D01*
X181000000Y-83898300D02*
X181000000Y-83500000D01*
X187487500Y-86475100D02*
X187487500Y-84053500D01*
X182502000Y-83940500D02*
X182502500Y-83940000D01*
X180000000Y-84898300D02*
X181000000Y-83898300D01*
X159137000Y-109830000D02*
X159137000Y-105900000D01*
X180000000Y-85099000D02*
X180000000Y-85500000D01*
X161168900Y-103868900D02*
X161302100Y-103735700D01*
X182502500Y-84440000D02*
X182502000Y-84440000D01*
X183612600Y-93698100D02*
X183612600Y-90350000D01*
X186118800Y-83940000D02*
X185377500Y-83940000D01*
X183690000Y-81060000D02*
X183690000Y-82752500D01*
X168058000Y-103478000D02*
X168058000Y-103479000D01*
X162859200Y-90969300D02*
X162859200Y-87681700D01*
X180000000Y-85099000D02*
X180000000Y-84898300D01*
X177560000Y-83550400D02*
X177765000Y-83550400D01*
X183750000Y-81000000D02*
X183690000Y-81060000D01*
X174750000Y-99250000D02*
X175400000Y-99900000D01*
X175400000Y-99900000D02*
X177350000Y-97950000D01*
X168058000Y-94930000D02*
X169360000Y-96232700D01*
X162859200Y-87681700D02*
X161557500Y-86380000D01*
X174750000Y-96912500D02*
X174750000Y-99250000D01*
X159137000Y-105900000D02*
X161168900Y-103868900D01*
X182502000Y-84940000D02*
X182502000Y-84898300D01*
X161302100Y-103091000D02*
X161557500Y-102835600D01*
X176850000Y-82840000D02*
X177560000Y-83550400D01*
X179302000Y-84401400D02*
X177949000Y-84401400D01*
X180000000Y-94262500D02*
X177350000Y-96912500D01*
X187487500Y-84053500D02*
X186787700Y-83353700D01*
X161557500Y-102835600D02*
X161557500Y-103480000D01*
X160332000Y-111025000D02*
X159137000Y-109830000D01*
X186787700Y-83353700D02*
X186705100Y-83353700D01*
X180000000Y-85099000D02*
X179302000Y-84401400D01*
X169360000Y-96232700D02*
X169360000Y-102175000D01*
X162250000Y-125800000D02*
X161348300Y-125800000D01*
X159137000Y-122687000D02*
X159137000Y-109830000D01*
X181149000Y-80399000D02*
X181000000Y-80250000D01*
X183612600Y-90350000D02*
X187487500Y-86475100D01*
X161557500Y-92270900D02*
X161557600Y-92270900D01*
X178043500Y-101200000D02*
X177350000Y-100506500D01*
X182502000Y-84052600D02*
X182502000Y-84440000D01*
X182502000Y-84898300D02*
X180000000Y-84898300D01*
X182502500Y-84940000D02*
X182502000Y-84940000D01*
X177350000Y-100506500D02*
X177350000Y-97950000D01*
X181000000Y-83500000D02*
X181149000Y-83351000D01*
X182502000Y-84052600D02*
X182502000Y-83940500D01*
X161348300Y-125800000D02*
X161348300Y-124898300D01*
X168058000Y-103479000D02*
X168057500Y-103479500D01*
X161557600Y-92270900D02*
X162859200Y-90969300D01*
X161168900Y-103868900D02*
X161558000Y-103480000D01*
X169360000Y-102175000D02*
X168058000Y-103478000D01*
X161348300Y-124898300D02*
X159137000Y-122687000D01*
%TO.N,Net-(BT1-+)*%
X187591000Y-119116000D02*
X187591000Y-123646000D01*
X187591000Y-123646000D02*
X186998000Y-124240000D01*
X185225000Y-116750000D02*
X187591000Y-119116000D01*
X187591000Y-123646000D02*
X186998000Y-124240000D01*
X186998000Y-124240000D02*
X187591000Y-123646000D01*
%TO.N,Net-(U4-VI)*%
X186775000Y-112258000D02*
X186410000Y-111893000D01*
X161775000Y-108836000D02*
X161775000Y-109325000D01*
X162601000Y-108009000D02*
X161775000Y-108836000D01*
X186775000Y-116750000D02*
X186775000Y-112258000D01*
%TO.N,Net-(C2-Pad2)*%
X181692600Y-86546900D02*
X181073000Y-85927300D01*
X181692600Y-116189000D02*
X180425400Y-117456200D01*
X181073000Y-85927300D02*
X181692600Y-86546900D01*
X186775000Y-119570300D02*
X186775000Y-119750000D01*
X181073000Y-85927300D02*
X181692600Y-86546900D01*
X181692600Y-86546900D02*
X181692600Y-116189000D01*
X185561600Y-118356900D02*
X186775000Y-119570300D01*
%TO.N,Net-(U3-OUTP)*%
X184250000Y-94750000D02*
X186750000Y-92250000D01*
X184092798Y-118617798D02*
X184092798Y-94907202D01*
X185750000Y-85312500D02*
X185377500Y-84940000D01*
X184092798Y-94907202D02*
X184250000Y-94750000D01*
X185750000Y-87000000D02*
X185750000Y-85312500D01*
X185225000Y-119750000D02*
X184092798Y-118617798D01*
X186750000Y-92250000D02*
X187250000Y-92250000D01*
%TO.N,Net-(U4-VO)*%
X163230000Y-112725000D02*
X164970000Y-114465000D01*
X186410000Y-122410000D02*
X186750000Y-122750000D01*
X161775000Y-112725000D02*
X163230000Y-112725000D01*
X186410000Y-121250000D02*
X186410000Y-122410000D01*
X164970000Y-114465000D02*
X164970000Y-117405000D01*
X166231000Y-118666000D02*
X166279000Y-118666000D01*
X164970000Y-117405000D02*
X166231000Y-118666000D01*
%TO.N,+3V3*%
X129547000Y-73293000D02*
X129547000Y-55308900D01*
X182704400Y-89983200D02*
X182704400Y-126947200D01*
X129547000Y-55308900D02*
X133160000Y-51695700D01*
X172412000Y-94769600D02*
X172412500Y-94770100D01*
X178950000Y-86101700D02*
X178201000Y-86101700D01*
X133532500Y-50505000D02*
X133532000Y-50505000D01*
X177900000Y-86101700D02*
X177150000Y-86851600D01*
X184082500Y-127342500D02*
X185175000Y-126250000D01*
X177150000Y-86851600D02*
X172412000Y-91589200D01*
X133160000Y-51695700D02*
X133532000Y-51695700D01*
X177900000Y-85800800D02*
X177900000Y-86101700D01*
X185175000Y-122775000D02*
X185175000Y-126250000D01*
X184190000Y-85627500D02*
X184690000Y-85627500D01*
X178201000Y-86101700D02*
X177900000Y-85800800D01*
X172412000Y-91589200D02*
X172412000Y-94769600D01*
X182704400Y-126947200D02*
X182961500Y-127204200D01*
X177900000Y-85500000D02*
X177900000Y-85800800D01*
X182961500Y-127204200D02*
X180457900Y-129707800D01*
X129350000Y-90900000D02*
X129350000Y-73293000D01*
X177481800Y-88503100D02*
X177481800Y-87183400D01*
X129350000Y-73293000D02*
X129547000Y-73293000D01*
X172412000Y-97950000D02*
X172412000Y-94769600D01*
X182961500Y-127204200D02*
X183099700Y-127342500D01*
X185200000Y-122750000D02*
X185175000Y-122775000D01*
X184690000Y-87997600D02*
X184690000Y-85627500D01*
X172412500Y-94770100D02*
X172412500Y-97950000D01*
X183099700Y-127342500D02*
X184082500Y-127342500D01*
X184690000Y-87997600D02*
X182704400Y-89983200D01*
X133532000Y-51695700D02*
X133532000Y-50505000D01*
X177481800Y-87183400D02*
X177150000Y-86851600D01*
X178950000Y-85500000D02*
X178950000Y-86101700D01*
%TO.N,Net-(AE1-A)*%
X188750000Y-102300000D02*
X192606700Y-102300000D01*
X188750000Y-96700000D02*
X192606700Y-96700000D01*
X192606700Y-102300000D02*
X192606700Y-96700000D01*
%TO.N,Net-(U3-OUTN)*%
X186844000Y-84296900D02*
X186701000Y-84440000D01*
X185378000Y-84440000D02*
X186701000Y-84440000D01*
X186701000Y-84440000D02*
X186844000Y-84296900D01*
X185377500Y-84440000D02*
X185378000Y-84440000D01*
X186701000Y-84440000D02*
X186844000Y-84296900D01*
%TO.N,Net-(MK2-SD)*%
X170889000Y-101214000D02*
X169601000Y-102502000D01*
X170889000Y-87855900D02*
X170889000Y-101214000D01*
X177211400Y-80500000D02*
X178548000Y-81836600D01*
X178950000Y-82238300D02*
X178548000Y-81836600D01*
X174500000Y-80500000D02*
X177211400Y-80500000D01*
X178950000Y-82840000D02*
X178950000Y-82238300D01*
X169601000Y-102502000D02*
X169601000Y-103310000D01*
X170889000Y-87855900D02*
X174500000Y-84244900D01*
X174500000Y-84244900D02*
X174500000Y-80500000D01*
%TO.N,Net-(MK2-SCK)*%
X139538800Y-101929800D02*
X139538800Y-78488400D01*
X180548000Y-81628000D02*
X180000000Y-82176000D01*
X132766200Y-108702400D02*
X139538800Y-101929800D01*
X180000000Y-82176000D02*
X180000000Y-82840000D01*
%TO.N,Net-(MK2-WS)*%
X176661700Y-81000000D02*
X177900000Y-82238300D01*
X177900000Y-82238300D02*
X177900000Y-82840000D01*
X174286000Y-85186200D02*
X175000000Y-84472200D01*
X175000000Y-84472200D02*
X175000000Y-81250000D01*
X175000000Y-81250000D02*
X175250000Y-81000000D01*
X175250000Y-81000000D02*
X176661700Y-81000000D01*
X174286000Y-87919400D02*
X174286000Y-85186200D01*
%TO.N,Net-(U6-EN)*%
X188000000Y-107250000D02*
X184493798Y-103743798D01*
X165573400Y-93805000D02*
X165573400Y-88796400D01*
X186825000Y-126250000D02*
X192250000Y-120825000D01*
X184493798Y-103743798D02*
X184493798Y-95993602D01*
X184493798Y-95993602D02*
X186410000Y-94077400D01*
X192250000Y-120825000D02*
X192250000Y-107250000D01*
X192250000Y-107250000D02*
X188000000Y-107250000D01*
X165573400Y-88796400D02*
X165577400Y-88792400D01*
%TO.N,Net-(U6-IO16)*%
X165027400Y-122827400D02*
X165027400Y-118928700D01*
X168950000Y-126750000D02*
X165027400Y-122827400D01*
%TO.N,Net-(U6-IO32)*%
X158759000Y-99038000D02*
X157101800Y-100695200D01*
X160158500Y-83279200D02*
X158759000Y-84678400D01*
X160158500Y-83279200D02*
X161558000Y-81880000D01*
X160158500Y-83279200D02*
X161557500Y-81880200D01*
X158759000Y-84678400D02*
X158759000Y-99038000D01*
X161557500Y-81880200D02*
X161557500Y-81880000D01*
%TO.N,Net-(U2-MISO)*%
X178658000Y-99900000D02*
X178388000Y-99900000D01*
X180500000Y-105905000D02*
X177482000Y-108923000D01*
X179650000Y-99900000D02*
X178387500Y-99900000D01*
X180500000Y-105750000D02*
X180500000Y-105905000D01*
X178387500Y-99900000D02*
X178388000Y-99900000D01*
X180500000Y-100750000D02*
X179650000Y-99900000D01*
%TO.N,Net-(U2-NSS)*%
X155966500Y-98866500D02*
X156826100Y-98006900D01*
X179946400Y-96182200D02*
X179946400Y-97393300D01*
X154750000Y-113760000D02*
X155966500Y-112543500D01*
X179946400Y-97393300D02*
X178739700Y-98600000D01*
X155966500Y-112543500D02*
X155966500Y-98866500D01*
X178739700Y-98600000D02*
X178387500Y-98600000D01*
%TO.N,Net-(U2-SCK)*%
X178387500Y-100550000D02*
X178774999Y-100550000D01*
X179750000Y-101525001D02*
X179750000Y-104500000D01*
X152000000Y-136000000D02*
X152000000Y-112250000D01*
X152000000Y-112250000D02*
X152250000Y-112000000D01*
X178774999Y-100550000D02*
X179750000Y-101525001D01*
%TO.N,Net-(U2-~{RESET})*%
X165572000Y-117156000D02*
X165572000Y-107683000D01*
X167367000Y-106395000D02*
X170203000Y-103559000D01*
X172412500Y-101200000D02*
X172412000Y-101200000D01*
X170203000Y-103066000D02*
X172068000Y-101200000D01*
X170203000Y-103559000D02*
X170203000Y-103066000D01*
X166860000Y-106395000D02*
X167367000Y-106395000D01*
X165572000Y-107683000D02*
X166860000Y-106395000D01*
X172068000Y-101200000D02*
X172412000Y-101200000D01*
%TO.N,Net-(U2-DIO0)*%
X175558000Y-119833000D02*
X175933000Y-119457000D01*
X175933000Y-106882000D02*
X174100000Y-105049000D01*
X175933000Y-119457000D02*
X175933000Y-106882000D01*
X174100000Y-105049000D02*
X174100000Y-102888000D01*
X174100000Y-102887500D02*
X174100000Y-102888000D01*
%TO.N,Net-(U2-MOSI)*%
X178675000Y-99250000D02*
X181023000Y-96902400D01*
X178388000Y-99250000D02*
X178675000Y-99250000D01*
X181023000Y-96902400D02*
X181023000Y-88139000D01*
X178387500Y-99250000D02*
X178388000Y-99250000D01*
%TO.N,Net-(U3-DIN)*%
X182500000Y-83437500D02*
X182502500Y-83440000D01*
X178500000Y-124549000D02*
X178500000Y-108750000D01*
X182500000Y-81500000D02*
X182500000Y-83437500D01*
X173923000Y-129126000D02*
X178500000Y-124549000D01*
X178500000Y-108750000D02*
X180000000Y-107250000D01*
%TO.N,Net-(U3-BCLK)*%
X157250000Y-128960000D02*
X154750000Y-126460000D01*
X158250000Y-134500000D02*
X157250000Y-135500000D01*
X183190000Y-81190000D02*
X182750000Y-80750000D01*
X193149000Y-134500000D02*
X158250000Y-134500000D01*
X193149000Y-88649000D02*
X193149000Y-134500000D01*
X184649000Y-79649000D02*
X189250000Y-84250000D01*
X183190000Y-82752500D02*
X183190000Y-81190000D01*
X182750000Y-80400057D02*
X183501057Y-79649000D01*
X182750000Y-80750000D02*
X182750000Y-80400057D01*
X189250000Y-84250000D02*
X189250000Y-84750000D01*
X157250000Y-135500000D02*
X157250000Y-128960000D01*
X189250000Y-84750000D02*
X193149000Y-88649000D01*
X183501057Y-79649000D02*
X184649000Y-79649000D01*
%TO.N,Net-(U3-LRCLK)*%
X184190000Y-82264900D02*
X184190000Y-82752500D01*
X184461300Y-81993600D02*
X184190000Y-82264900D01*
X187889200Y-83887200D02*
X185995600Y-81993600D01*
X183360000Y-94801700D02*
X187652300Y-90509400D01*
X187652300Y-90509400D02*
X187652300Y-89952500D01*
X185995600Y-81993600D02*
X184461300Y-81993600D01*
X183360000Y-126739000D02*
X183360000Y-94801700D01*
X187652300Y-89952500D02*
X187487500Y-89787700D01*
X187487500Y-89787700D02*
X187889200Y-89386000D01*
X187889200Y-89386000D02*
X187889200Y-83887200D01*
X187652300Y-89952500D02*
X187487500Y-89787700D01*
%TO.N,Net-(U5-SCK)*%
X133952500Y-56005000D02*
X133952500Y-56005500D01*
X153275000Y-135145000D02*
X154750000Y-136620000D01*
X133532000Y-55585000D02*
X133952500Y-56005500D01*
X153275000Y-75327700D02*
X153275000Y-135145000D01*
X133952500Y-56005500D02*
X153275000Y-75327700D01*
X133532500Y-55585000D02*
X133952500Y-56005000D01*
%TO.N,Net-(U5-MOSI)*%
X130818000Y-119912000D02*
X130818000Y-60839200D01*
X130818000Y-60839200D02*
X133532000Y-58125000D01*
X133532500Y-58125000D02*
X133532000Y-58125000D01*
X129350000Y-121380000D02*
X130818000Y-119912000D01*
%TO.N,Net-(U5-TFT_CS)*%
X135816000Y-62948900D02*
X135816000Y-94077400D01*
X133532000Y-60665000D02*
X133532300Y-60665200D01*
X133532300Y-60665200D02*
X135816000Y-62948900D01*
X133532500Y-60665000D02*
X133532300Y-60665200D01*
%TO.N,Net-(U5-D{slash}C)*%
X129350000Y-126460000D02*
X131546000Y-124264000D01*
X131546000Y-124264000D02*
X131546000Y-67731200D01*
X131546000Y-67731200D02*
X133532000Y-65745000D01*
X133532500Y-65745000D02*
X133532000Y-65745000D01*
%TO.N,Net-(U5-RESET)*%
X154750000Y-129000000D02*
X153683000Y-127933000D01*
X153683000Y-127933000D02*
X153683000Y-70334100D01*
X153683000Y-70334100D02*
X153673000Y-70323800D01*
X153683000Y-70334100D02*
X153673000Y-70323800D01*
X153673000Y-70323800D02*
X153683000Y-70334100D01*
%TO.N,Net-(J1-In)*%
X187378000Y-99618100D02*
X188632000Y-99618100D01*
X176050000Y-96912500D02*
X176050000Y-96599100D01*
X176050000Y-96599100D02*
X176726000Y-95923000D01*
X176726000Y-95923000D02*
X177259000Y-95923000D01*
X186404000Y-99618100D02*
X187378000Y-99618100D01*
X177259000Y-95923000D02*
X176726000Y-95923000D01*
X187378000Y-99618100D02*
X186404000Y-99618100D01*
X188632000Y-99618100D02*
X188750000Y-99500000D01*
X176726000Y-95923000D02*
X177259000Y-95923000D01*
X186404000Y-99618100D02*
X187378000Y-99618100D01*
%TD*%
M02*
