%TF.GenerationSoftware,KiCad,Pcbnew,9.0.5*%
%TF.CreationDate,2025-11-15T09:05:35-08:00*%
%TF.ProjectId,Radio2,52616469-6f32-42e6-9b69-6361645f7063,rev?*%
%TF.SameCoordinates,Original*%
%TF.FileFunction,Soldermask,Bot*%
%TF.FilePolarity,Negative*%
%FSLAX46Y46*%
G04 Gerber Fmt 4.6, Leading zero omitted, Abs format (unit mm)*
G04 Created by KiCad (PCBNEW 9.0.5) date 2025-11-15 09:05:35*
%MOMM*%
%LPD*%
G01*
G04 APERTURE LIST*
G04 Aperture macros list*
%AMRoundRect*
0 Rectangle with rounded corners*
0 $1 Rounding radius*
0 $2 $3 $4 $5 $6 $7 $8 $9 X,Y pos of 4 corners*
0 Add a 4 corners polygon primitive as box body*
4,1,4,$2,$3,$4,$5,$6,$7,$8,$9,$2,$3,0*
0 Add four circle primitives for the rounded corners*
1,1,$1+$1,$2,$3*
1,1,$1+$1,$4,$5*
1,1,$1+$1,$6,$7*
1,1,$1+$1,$8,$9*
0 Add four rect primitives between the rounded corners*
20,1,$1+$1,$2,$3,$4,$5,0*
20,1,$1+$1,$4,$5,$6,$7,0*
20,1,$1+$1,$6,$7,$8,$9,0*
20,1,$1+$1,$8,$9,$2,$3,0*%
G04 Aperture macros list end*
%ADD10RoundRect,0.102000X0.765000X-0.765000X0.765000X0.765000X-0.765000X0.765000X-0.765000X-0.765000X0*%
%ADD11C,1.734000*%
%ADD12C,2.200000*%
%ADD13RoundRect,0.102000X-0.889000X-0.889000X0.889000X-0.889000X0.889000X0.889000X-0.889000X0.889000X0*%
%ADD14C,1.982000*%
%ADD15RoundRect,0.250000X0.625000X-0.350000X0.625000X0.350000X-0.625000X0.350000X-0.625000X-0.350000X0*%
%ADD16O,1.750000X1.200000*%
%ADD17C,2.000000*%
%ADD18C,4.000000*%
%ADD19C,1.800000*%
%ADD20R,1.700000X1.700000*%
%ADD21C,1.700000*%
%ADD22C,1.676000*%
G04 APERTURE END LIST*
D10*
%TO.C,U6*%
X119150000Y-142200000D03*
D11*
X121690000Y-142200000D03*
X124230000Y-142200000D03*
X126770000Y-142200000D03*
X129310000Y-142200000D03*
X131850000Y-142200000D03*
X134390000Y-142200000D03*
X136930000Y-142200000D03*
X139470000Y-142200000D03*
X142010000Y-142200000D03*
X144550000Y-142200000D03*
X147090000Y-142200000D03*
X149630000Y-142200000D03*
X152170000Y-142200000D03*
X154710000Y-142200000D03*
X157250000Y-142200000D03*
X159790000Y-142200000D03*
X162330000Y-142200000D03*
X164870000Y-142200000D03*
X164870000Y-116800000D03*
X162330000Y-116800000D03*
X159790000Y-116800000D03*
X157250000Y-116800000D03*
X154710000Y-116800000D03*
X152170000Y-116800000D03*
X149630000Y-116800000D03*
X147090000Y-116800000D03*
X144550000Y-116800000D03*
X142010000Y-116800000D03*
X139470000Y-116800000D03*
X136930000Y-116800000D03*
X134390000Y-116800000D03*
X131850000Y-116800000D03*
X129310000Y-116800000D03*
X126770000Y-116800000D03*
X124230000Y-116800000D03*
X121690000Y-116800000D03*
X119150000Y-116800000D03*
%TD*%
D12*
%TO.C,U5*%
X114420000Y-54430000D03*
X114420000Y-83640000D03*
X165220000Y-54430000D03*
X165220000Y-83640000D03*
D13*
X114420000Y-57605000D03*
D14*
X114420000Y-60145000D03*
X114420000Y-62685000D03*
X114420000Y-65225000D03*
X114420000Y-67765000D03*
X114420000Y-70305000D03*
X114420000Y-72845000D03*
X114420000Y-75385000D03*
X114420000Y-77925000D03*
X114420000Y-80465000D03*
%TD*%
D15*
%TO.C,BT1*%
X113800000Y-105000000D03*
D16*
X113800000Y-103000000D03*
%TD*%
D17*
%TO.C,SW3*%
X159750000Y-90000000D03*
X166250000Y-90000000D03*
X159750000Y-94500000D03*
X166250000Y-94500000D03*
%TD*%
D18*
%TO.C,RV1*%
X161700000Y-101850000D03*
X161700000Y-110650000D03*
D19*
X154700000Y-108750000D03*
X154700000Y-106250000D03*
X154700000Y-103750000D03*
%TD*%
D20*
%TO.C,LS1*%
X124000000Y-102710000D03*
D21*
X124000000Y-105250000D03*
%TD*%
D17*
%TO.C,SW1*%
X118500000Y-89500000D03*
X125000000Y-89500000D03*
X118500000Y-94000000D03*
X125000000Y-94000000D03*
%TD*%
D22*
%TO.C,MK2*%
X148670000Y-97120000D03*
X151210000Y-97120000D03*
X153750000Y-97120000D03*
X148670000Y-89500000D03*
X151210000Y-89500000D03*
X153750000Y-89500000D03*
%TD*%
D17*
%TO.C,SW2*%
X135750000Y-89750000D03*
X142250000Y-89750000D03*
X135750000Y-94250000D03*
X142250000Y-94250000D03*
%TD*%
M02*
