%TF.GenerationSoftware,KiCad,Pcbnew,9.0.5*%
%TF.CreationDate,2025-11-15T09:05:35-08:00*%
%TF.ProjectId,Radio2,52616469-6f32-42e6-9b69-6361645f7063,rev?*%
%TF.SameCoordinates,Original*%
%TF.FileFunction,Paste,Top*%
%TF.FilePolarity,Positive*%
%FSLAX46Y46*%
G04 Gerber Fmt 4.6, Leading zero omitted, Abs format (unit mm)*
G04 Created by KiCad (PCBNEW 9.0.5) date 2025-11-15 09:05:35*
%MOMM*%
%LPD*%
G01*
G04 APERTURE LIST*
G04 Aperture macros list*
%AMRoundRect*
0 Rectangle with rounded corners*
0 $1 Rounding radius*
0 $2 $3 $4 $5 $6 $7 $8 $9 X,Y pos of 4 corners*
0 Add a 4 corners polygon primitive as box body*
4,1,4,$2,$3,$4,$5,$6,$7,$8,$9,$2,$3,0*
0 Add four circle primitives for the rounded corners*
1,1,$1+$1,$2,$3*
1,1,$1+$1,$4,$5*
1,1,$1+$1,$6,$7*
1,1,$1+$1,$8,$9*
0 Add four rect primitives between the rounded corners*
20,1,$1+$1,$2,$3,$4,$5,0*
20,1,$1+$1,$4,$5,$6,$7,0*
20,1,$1+$1,$6,$7,$8,$9,0*
20,1,$1+$1,$8,$9,$2,$3,0*%
%AMFreePoly0*
4,1,25,-1.500000,1.420000,-1.360000,1.280000,-1.205000,1.155000,-1.035000,1.045000,-0.860000,0.950000,-0.675000,0.875000,-0.480000,0.820000,-0.280000,0.780000,-0.085000,0.765000,0.085000,0.765000,0.280000,0.780000,0.480000,0.820000,0.675000,0.875000,0.860000,0.950000,1.035000,1.045000,1.205000,1.155000,1.360000,1.280000,1.500000,1.420000,1.645000,1.595000,3.555000,1.595000,
3.555000,-0.755000,-3.555000,-0.755000,-3.555000,1.595000,-1.645000,1.595000,-1.500000,1.420000,-1.500000,1.420000,$1*%
G04 Aperture macros list end*
%ADD10RoundRect,0.125000X-0.125000X-0.125000X0.125000X-0.125000X0.125000X0.125000X-0.125000X0.125000X0*%
%ADD11RoundRect,0.062500X-0.350000X-0.062500X0.350000X-0.062500X0.350000X0.062500X-0.350000X0.062500X0*%
%ADD12RoundRect,0.062500X-0.062500X-0.350000X0.062500X-0.350000X0.062500X0.350000X-0.062500X0.350000X0*%
%ADD13RoundRect,0.225000X-0.225000X-0.250000X0.225000X-0.250000X0.225000X0.250000X-0.225000X0.250000X0*%
%ADD14RoundRect,0.249999X-0.395001X-0.395001X0.395001X-0.395001X0.395001X0.395001X-0.395001X0.395001X0*%
%ADD15RoundRect,0.075000X-0.312500X-0.075000X0.312500X-0.075000X0.312500X0.075000X-0.312500X0.075000X0*%
%ADD16RoundRect,0.075000X-0.075000X-0.312500X0.075000X-0.312500X0.075000X0.312500X-0.075000X0.312500X0*%
%ADD17RoundRect,0.200000X-0.200000X-0.275000X0.200000X-0.275000X0.200000X0.275000X-0.200000X0.275000X0*%
%ADD18C,1.730000*%
%ADD19FreePoly0,180.000000*%
%ADD20FreePoly0,0.000000*%
%ADD21RoundRect,0.250000X-2.025000X-2.375000X2.025000X-2.375000X2.025000X2.375000X-2.025000X2.375000X0*%
%ADD22RoundRect,0.250000X-2.050000X-0.300000X2.050000X-0.300000X2.050000X0.300000X-2.050000X0.300000X0*%
%ADD23C,1.676000*%
G04 APERTURE END LIST*
D10*
%TO.C,U3*%
X130000000Y-92000000D03*
X130000000Y-92620000D03*
X130620000Y-92000000D03*
X130620000Y-92620000D03*
D11*
X128872500Y-91560000D03*
X128872500Y-92060000D03*
X128872500Y-92560000D03*
X128872500Y-93060000D03*
D12*
X129560000Y-93747500D03*
X130060000Y-93747500D03*
X130560000Y-93747500D03*
X131060000Y-93747500D03*
D11*
X131747500Y-93060000D03*
X131747500Y-92560000D03*
X131747500Y-92060000D03*
X131747500Y-91560000D03*
D12*
X131060000Y-90872500D03*
X130560000Y-90872500D03*
X130060000Y-90872500D03*
X129560000Y-90872500D03*
%TD*%
D13*
%TO.C,C3*%
X114400000Y-109850000D03*
X115950000Y-109850000D03*
%TD*%
D14*
%TO.C,U2*%
X128400000Y-107650000D03*
X128400000Y-109250000D03*
X128400000Y-110850000D03*
X130000000Y-107650000D03*
X130000000Y-109250000D03*
X130000000Y-110850000D03*
X131600000Y-107650000D03*
X131600000Y-109250000D03*
X131600000Y-110850000D03*
D15*
X127012500Y-107300000D03*
X127012500Y-107950000D03*
X127012500Y-108600000D03*
X127012500Y-109250000D03*
X127012500Y-109900000D03*
X127012500Y-110550000D03*
X127012500Y-111200000D03*
D16*
X128050000Y-112237500D03*
X128700000Y-112237500D03*
X129350000Y-112237500D03*
X130000000Y-112237500D03*
X130650000Y-112237500D03*
X131300000Y-112237500D03*
X131950000Y-112237500D03*
D15*
X132987500Y-111200000D03*
X132987500Y-110550000D03*
X132987500Y-109900000D03*
X132987500Y-109250000D03*
X132987500Y-108600000D03*
X132987500Y-107950000D03*
X132987500Y-107300000D03*
D16*
X131950000Y-106262500D03*
X131300000Y-106262500D03*
X130650000Y-106262500D03*
X130000000Y-106262500D03*
X129350000Y-106262500D03*
X128700000Y-106262500D03*
X128050000Y-106262500D03*
%TD*%
D13*
%TO.C,C1*%
X129975000Y-99490000D03*
X131525000Y-99490000D03*
%TD*%
%TO.C,C2*%
X129975000Y-102000000D03*
X131525000Y-102000000D03*
%TD*%
D17*
%TO.C,R1*%
X114350000Y-112360000D03*
X116000000Y-112360000D03*
%TD*%
D18*
%TO.C,J1*%
X160250000Y-45950000D03*
D19*
X160250000Y-43150000D03*
D20*
X160250000Y-48750000D03*
%TD*%
D21*
%TO.C,U4*%
X144575000Y-103725000D03*
X144575000Y-109275000D03*
X149425000Y-103725000D03*
X149425000Y-109275000D03*
D22*
X137850000Y-103100000D03*
X137850000Y-104800000D03*
X137850000Y-106500000D03*
X137850000Y-108200000D03*
X137850000Y-109900000D03*
%TD*%
D23*
%TO.C,MK2*%
X148670000Y-97120000D03*
X151210000Y-97120000D03*
X153750000Y-97120000D03*
X148670000Y-89500000D03*
X151210000Y-89500000D03*
X153750000Y-89500000D03*
%TD*%
M02*
