%TF.GenerationSoftware,KiCad,Pcbnew,9.0.5*%
%TF.CreationDate,2025-11-15T09:05:35-08:00*%
%TF.ProjectId,Radio2,52616469-6f32-42e6-9b69-6361645f7063,rev?*%
%TF.SameCoordinates,Original*%
%TF.FileFunction,Legend,Top*%
%TF.FilePolarity,Positive*%
%FSLAX46Y46*%
G04 Gerber Fmt 4.6, Leading zero omitted, Abs format (unit mm)*
G04 Created by KiCad (PCBNEW 9.0.5) date 2025-11-15 09:05:35*
%MOMM*%
%LPD*%
G01*
G04 APERTURE LIST*
%ADD10C,0.150000*%
%ADD11C,0.152000*%
%ADD12C,0.102000*%
%ADD13C,0.120000*%
%ADD14C,0.127000*%
%ADD15C,0.200000*%
%ADD16C,0.254000*%
G04 APERTURE END LIST*
D10*
X129548095Y-88964819D02*
X129548095Y-89774342D01*
X129548095Y-89774342D02*
X129595714Y-89869580D01*
X129595714Y-89869580D02*
X129643333Y-89917200D01*
X129643333Y-89917200D02*
X129738571Y-89964819D01*
X129738571Y-89964819D02*
X129929047Y-89964819D01*
X129929047Y-89964819D02*
X130024285Y-89917200D01*
X130024285Y-89917200D02*
X130071904Y-89869580D01*
X130071904Y-89869580D02*
X130119523Y-89774342D01*
X130119523Y-89774342D02*
X130119523Y-88964819D01*
X130500476Y-88964819D02*
X131119523Y-88964819D01*
X131119523Y-88964819D02*
X130786190Y-89345771D01*
X130786190Y-89345771D02*
X130929047Y-89345771D01*
X130929047Y-89345771D02*
X131024285Y-89393390D01*
X131024285Y-89393390D02*
X131071904Y-89441009D01*
X131071904Y-89441009D02*
X131119523Y-89536247D01*
X131119523Y-89536247D02*
X131119523Y-89774342D01*
X131119523Y-89774342D02*
X131071904Y-89869580D01*
X131071904Y-89869580D02*
X131024285Y-89917200D01*
X131024285Y-89917200D02*
X130929047Y-89964819D01*
X130929047Y-89964819D02*
X130643333Y-89964819D01*
X130643333Y-89964819D02*
X130548095Y-89917200D01*
X130548095Y-89917200D02*
X130500476Y-89869580D01*
X114833333Y-108609580D02*
X114785714Y-108657200D01*
X114785714Y-108657200D02*
X114642857Y-108704819D01*
X114642857Y-108704819D02*
X114547619Y-108704819D01*
X114547619Y-108704819D02*
X114404762Y-108657200D01*
X114404762Y-108657200D02*
X114309524Y-108561961D01*
X114309524Y-108561961D02*
X114261905Y-108466723D01*
X114261905Y-108466723D02*
X114214286Y-108276247D01*
X114214286Y-108276247D02*
X114214286Y-108133390D01*
X114214286Y-108133390D02*
X114261905Y-107942914D01*
X114261905Y-107942914D02*
X114309524Y-107847676D01*
X114309524Y-107847676D02*
X114404762Y-107752438D01*
X114404762Y-107752438D02*
X114547619Y-107704819D01*
X114547619Y-107704819D02*
X114642857Y-107704819D01*
X114642857Y-107704819D02*
X114785714Y-107752438D01*
X114785714Y-107752438D02*
X114833333Y-107800057D01*
X115166667Y-107704819D02*
X115785714Y-107704819D01*
X115785714Y-107704819D02*
X115452381Y-108085771D01*
X115452381Y-108085771D02*
X115595238Y-108085771D01*
X115595238Y-108085771D02*
X115690476Y-108133390D01*
X115690476Y-108133390D02*
X115738095Y-108181009D01*
X115738095Y-108181009D02*
X115785714Y-108276247D01*
X115785714Y-108276247D02*
X115785714Y-108514342D01*
X115785714Y-108514342D02*
X115738095Y-108609580D01*
X115738095Y-108609580D02*
X115690476Y-108657200D01*
X115690476Y-108657200D02*
X115595238Y-108704819D01*
X115595238Y-108704819D02*
X115309524Y-108704819D01*
X115309524Y-108704819D02*
X115214286Y-108657200D01*
X115214286Y-108657200D02*
X115166667Y-108609580D01*
X109704819Y-141056904D02*
X110514342Y-141056904D01*
X110514342Y-141056904D02*
X110609580Y-141009285D01*
X110609580Y-141009285D02*
X110657200Y-140961666D01*
X110657200Y-140961666D02*
X110704819Y-140866428D01*
X110704819Y-140866428D02*
X110704819Y-140675952D01*
X110704819Y-140675952D02*
X110657200Y-140580714D01*
X110657200Y-140580714D02*
X110609580Y-140533095D01*
X110609580Y-140533095D02*
X110514342Y-140485476D01*
X110514342Y-140485476D02*
X109704819Y-140485476D01*
X109704819Y-139580714D02*
X109704819Y-139771190D01*
X109704819Y-139771190D02*
X109752438Y-139866428D01*
X109752438Y-139866428D02*
X109800057Y-139914047D01*
X109800057Y-139914047D02*
X109942914Y-140009285D01*
X109942914Y-140009285D02*
X110133390Y-140056904D01*
X110133390Y-140056904D02*
X110514342Y-140056904D01*
X110514342Y-140056904D02*
X110609580Y-140009285D01*
X110609580Y-140009285D02*
X110657200Y-139961666D01*
X110657200Y-139961666D02*
X110704819Y-139866428D01*
X110704819Y-139866428D02*
X110704819Y-139675952D01*
X110704819Y-139675952D02*
X110657200Y-139580714D01*
X110657200Y-139580714D02*
X110609580Y-139533095D01*
X110609580Y-139533095D02*
X110514342Y-139485476D01*
X110514342Y-139485476D02*
X110276247Y-139485476D01*
X110276247Y-139485476D02*
X110181009Y-139533095D01*
X110181009Y-139533095D02*
X110133390Y-139580714D01*
X110133390Y-139580714D02*
X110085771Y-139675952D01*
X110085771Y-139675952D02*
X110085771Y-139866428D01*
X110085771Y-139866428D02*
X110133390Y-139961666D01*
X110133390Y-139961666D02*
X110181009Y-140009285D01*
X110181009Y-140009285D02*
X110276247Y-140056904D01*
X114043095Y-49459819D02*
X114043095Y-50269342D01*
X114043095Y-50269342D02*
X114090714Y-50364580D01*
X114090714Y-50364580D02*
X114138333Y-50412200D01*
X114138333Y-50412200D02*
X114233571Y-50459819D01*
X114233571Y-50459819D02*
X114424047Y-50459819D01*
X114424047Y-50459819D02*
X114519285Y-50412200D01*
X114519285Y-50412200D02*
X114566904Y-50364580D01*
X114566904Y-50364580D02*
X114614523Y-50269342D01*
X114614523Y-50269342D02*
X114614523Y-49459819D01*
X115566904Y-49459819D02*
X115090714Y-49459819D01*
X115090714Y-49459819D02*
X115043095Y-49936009D01*
X115043095Y-49936009D02*
X115090714Y-49888390D01*
X115090714Y-49888390D02*
X115185952Y-49840771D01*
X115185952Y-49840771D02*
X115424047Y-49840771D01*
X115424047Y-49840771D02*
X115519285Y-49888390D01*
X115519285Y-49888390D02*
X115566904Y-49936009D01*
X115566904Y-49936009D02*
X115614523Y-50031247D01*
X115614523Y-50031247D02*
X115614523Y-50269342D01*
X115614523Y-50269342D02*
X115566904Y-50364580D01*
X115566904Y-50364580D02*
X115519285Y-50412200D01*
X115519285Y-50412200D02*
X115424047Y-50459819D01*
X115424047Y-50459819D02*
X115185952Y-50459819D01*
X115185952Y-50459819D02*
X115090714Y-50412200D01*
X115090714Y-50412200D02*
X115043095Y-50364580D01*
X111181009Y-104785714D02*
X111228628Y-104642857D01*
X111228628Y-104642857D02*
X111276247Y-104595238D01*
X111276247Y-104595238D02*
X111371485Y-104547619D01*
X111371485Y-104547619D02*
X111514342Y-104547619D01*
X111514342Y-104547619D02*
X111609580Y-104595238D01*
X111609580Y-104595238D02*
X111657200Y-104642857D01*
X111657200Y-104642857D02*
X111704819Y-104738095D01*
X111704819Y-104738095D02*
X111704819Y-105119047D01*
X111704819Y-105119047D02*
X110704819Y-105119047D01*
X110704819Y-105119047D02*
X110704819Y-104785714D01*
X110704819Y-104785714D02*
X110752438Y-104690476D01*
X110752438Y-104690476D02*
X110800057Y-104642857D01*
X110800057Y-104642857D02*
X110895295Y-104595238D01*
X110895295Y-104595238D02*
X110990533Y-104595238D01*
X110990533Y-104595238D02*
X111085771Y-104642857D01*
X111085771Y-104642857D02*
X111133390Y-104690476D01*
X111133390Y-104690476D02*
X111181009Y-104785714D01*
X111181009Y-104785714D02*
X111181009Y-105119047D01*
X110704819Y-104261904D02*
X110704819Y-103690476D01*
X111704819Y-103976190D02*
X110704819Y-103976190D01*
X111704819Y-102833333D02*
X111704819Y-103404761D01*
X111704819Y-103119047D02*
X110704819Y-103119047D01*
X110704819Y-103119047D02*
X110847676Y-103214285D01*
X110847676Y-103214285D02*
X110942914Y-103309523D01*
X110942914Y-103309523D02*
X110990533Y-103404761D01*
X161666667Y-88407200D02*
X161809524Y-88454819D01*
X161809524Y-88454819D02*
X162047619Y-88454819D01*
X162047619Y-88454819D02*
X162142857Y-88407200D01*
X162142857Y-88407200D02*
X162190476Y-88359580D01*
X162190476Y-88359580D02*
X162238095Y-88264342D01*
X162238095Y-88264342D02*
X162238095Y-88169104D01*
X162238095Y-88169104D02*
X162190476Y-88073866D01*
X162190476Y-88073866D02*
X162142857Y-88026247D01*
X162142857Y-88026247D02*
X162047619Y-87978628D01*
X162047619Y-87978628D02*
X161857143Y-87931009D01*
X161857143Y-87931009D02*
X161761905Y-87883390D01*
X161761905Y-87883390D02*
X161714286Y-87835771D01*
X161714286Y-87835771D02*
X161666667Y-87740533D01*
X161666667Y-87740533D02*
X161666667Y-87645295D01*
X161666667Y-87645295D02*
X161714286Y-87550057D01*
X161714286Y-87550057D02*
X161761905Y-87502438D01*
X161761905Y-87502438D02*
X161857143Y-87454819D01*
X161857143Y-87454819D02*
X162095238Y-87454819D01*
X162095238Y-87454819D02*
X162238095Y-87502438D01*
X162571429Y-87454819D02*
X162809524Y-88454819D01*
X162809524Y-88454819D02*
X163000000Y-87740533D01*
X163000000Y-87740533D02*
X163190476Y-88454819D01*
X163190476Y-88454819D02*
X163428572Y-87454819D01*
X163714286Y-87454819D02*
X164333333Y-87454819D01*
X164333333Y-87454819D02*
X164000000Y-87835771D01*
X164000000Y-87835771D02*
X164142857Y-87835771D01*
X164142857Y-87835771D02*
X164238095Y-87883390D01*
X164238095Y-87883390D02*
X164285714Y-87931009D01*
X164285714Y-87931009D02*
X164333333Y-88026247D01*
X164333333Y-88026247D02*
X164333333Y-88264342D01*
X164333333Y-88264342D02*
X164285714Y-88359580D01*
X164285714Y-88359580D02*
X164238095Y-88407200D01*
X164238095Y-88407200D02*
X164142857Y-88454819D01*
X164142857Y-88454819D02*
X163857143Y-88454819D01*
X163857143Y-88454819D02*
X163761905Y-88407200D01*
X163761905Y-88407200D02*
X163714286Y-88359580D01*
X129238095Y-104374819D02*
X129238095Y-105184342D01*
X129238095Y-105184342D02*
X129285714Y-105279580D01*
X129285714Y-105279580D02*
X129333333Y-105327200D01*
X129333333Y-105327200D02*
X129428571Y-105374819D01*
X129428571Y-105374819D02*
X129619047Y-105374819D01*
X129619047Y-105374819D02*
X129714285Y-105327200D01*
X129714285Y-105327200D02*
X129761904Y-105279580D01*
X129761904Y-105279580D02*
X129809523Y-105184342D01*
X129809523Y-105184342D02*
X129809523Y-104374819D01*
X130238095Y-104470057D02*
X130285714Y-104422438D01*
X130285714Y-104422438D02*
X130380952Y-104374819D01*
X130380952Y-104374819D02*
X130619047Y-104374819D01*
X130619047Y-104374819D02*
X130714285Y-104422438D01*
X130714285Y-104422438D02*
X130761904Y-104470057D01*
X130761904Y-104470057D02*
X130809523Y-104565295D01*
X130809523Y-104565295D02*
X130809523Y-104660533D01*
X130809523Y-104660533D02*
X130761904Y-104803390D01*
X130761904Y-104803390D02*
X130190476Y-105374819D01*
X130190476Y-105374819D02*
X130809523Y-105374819D01*
X160154761Y-99054819D02*
X159821428Y-98578628D01*
X159583333Y-99054819D02*
X159583333Y-98054819D01*
X159583333Y-98054819D02*
X159964285Y-98054819D01*
X159964285Y-98054819D02*
X160059523Y-98102438D01*
X160059523Y-98102438D02*
X160107142Y-98150057D01*
X160107142Y-98150057D02*
X160154761Y-98245295D01*
X160154761Y-98245295D02*
X160154761Y-98388152D01*
X160154761Y-98388152D02*
X160107142Y-98483390D01*
X160107142Y-98483390D02*
X160059523Y-98531009D01*
X160059523Y-98531009D02*
X159964285Y-98578628D01*
X159964285Y-98578628D02*
X159583333Y-98578628D01*
X160440476Y-98054819D02*
X160773809Y-99054819D01*
X160773809Y-99054819D02*
X161107142Y-98054819D01*
X161964285Y-99054819D02*
X161392857Y-99054819D01*
X161678571Y-99054819D02*
X161678571Y-98054819D01*
X161678571Y-98054819D02*
X161583333Y-98197676D01*
X161583333Y-98197676D02*
X161488095Y-98292914D01*
X161488095Y-98292914D02*
X161392857Y-98340533D01*
X130583333Y-98419580D02*
X130535714Y-98467200D01*
X130535714Y-98467200D02*
X130392857Y-98514819D01*
X130392857Y-98514819D02*
X130297619Y-98514819D01*
X130297619Y-98514819D02*
X130154762Y-98467200D01*
X130154762Y-98467200D02*
X130059524Y-98371961D01*
X130059524Y-98371961D02*
X130011905Y-98276723D01*
X130011905Y-98276723D02*
X129964286Y-98086247D01*
X129964286Y-98086247D02*
X129964286Y-97943390D01*
X129964286Y-97943390D02*
X130011905Y-97752914D01*
X130011905Y-97752914D02*
X130059524Y-97657676D01*
X130059524Y-97657676D02*
X130154762Y-97562438D01*
X130154762Y-97562438D02*
X130297619Y-97514819D01*
X130297619Y-97514819D02*
X130392857Y-97514819D01*
X130392857Y-97514819D02*
X130535714Y-97562438D01*
X130535714Y-97562438D02*
X130583333Y-97610057D01*
X131535714Y-98514819D02*
X130964286Y-98514819D01*
X131250000Y-98514819D02*
X131250000Y-97514819D01*
X131250000Y-97514819D02*
X131154762Y-97657676D01*
X131154762Y-97657676D02*
X131059524Y-97752914D01*
X131059524Y-97752914D02*
X130964286Y-97800533D01*
X133083333Y-102109580D02*
X133035714Y-102157200D01*
X133035714Y-102157200D02*
X132892857Y-102204819D01*
X132892857Y-102204819D02*
X132797619Y-102204819D01*
X132797619Y-102204819D02*
X132654762Y-102157200D01*
X132654762Y-102157200D02*
X132559524Y-102061961D01*
X132559524Y-102061961D02*
X132511905Y-101966723D01*
X132511905Y-101966723D02*
X132464286Y-101776247D01*
X132464286Y-101776247D02*
X132464286Y-101633390D01*
X132464286Y-101633390D02*
X132511905Y-101442914D01*
X132511905Y-101442914D02*
X132559524Y-101347676D01*
X132559524Y-101347676D02*
X132654762Y-101252438D01*
X132654762Y-101252438D02*
X132797619Y-101204819D01*
X132797619Y-101204819D02*
X132892857Y-101204819D01*
X132892857Y-101204819D02*
X133035714Y-101252438D01*
X133035714Y-101252438D02*
X133083333Y-101300057D01*
X133464286Y-101300057D02*
X133511905Y-101252438D01*
X133511905Y-101252438D02*
X133607143Y-101204819D01*
X133607143Y-101204819D02*
X133845238Y-101204819D01*
X133845238Y-101204819D02*
X133940476Y-101252438D01*
X133940476Y-101252438D02*
X133988095Y-101300057D01*
X133988095Y-101300057D02*
X134035714Y-101395295D01*
X134035714Y-101395295D02*
X134035714Y-101490533D01*
X134035714Y-101490533D02*
X133988095Y-101633390D01*
X133988095Y-101633390D02*
X133416667Y-102204819D01*
X133416667Y-102204819D02*
X134035714Y-102204819D01*
X118333333Y-112954819D02*
X118000000Y-112478628D01*
X117761905Y-112954819D02*
X117761905Y-111954819D01*
X117761905Y-111954819D02*
X118142857Y-111954819D01*
X118142857Y-111954819D02*
X118238095Y-112002438D01*
X118238095Y-112002438D02*
X118285714Y-112050057D01*
X118285714Y-112050057D02*
X118333333Y-112145295D01*
X118333333Y-112145295D02*
X118333333Y-112288152D01*
X118333333Y-112288152D02*
X118285714Y-112383390D01*
X118285714Y-112383390D02*
X118238095Y-112431009D01*
X118238095Y-112431009D02*
X118142857Y-112478628D01*
X118142857Y-112478628D02*
X117761905Y-112478628D01*
X119285714Y-112954819D02*
X118714286Y-112954819D01*
X119000000Y-112954819D02*
X119000000Y-111954819D01*
X119000000Y-111954819D02*
X118904762Y-112097676D01*
X118904762Y-112097676D02*
X118809524Y-112192914D01*
X118809524Y-112192914D02*
X118714286Y-112240533D01*
X159916666Y-40654819D02*
X159916666Y-41369104D01*
X159916666Y-41369104D02*
X159869047Y-41511961D01*
X159869047Y-41511961D02*
X159773809Y-41607200D01*
X159773809Y-41607200D02*
X159630952Y-41654819D01*
X159630952Y-41654819D02*
X159535714Y-41654819D01*
X160916666Y-41654819D02*
X160345238Y-41654819D01*
X160630952Y-41654819D02*
X160630952Y-40654819D01*
X160630952Y-40654819D02*
X160535714Y-40797676D01*
X160535714Y-40797676D02*
X160440476Y-40892914D01*
X160440476Y-40892914D02*
X160345238Y-40940533D01*
X123357142Y-100784819D02*
X122880952Y-100784819D01*
X122880952Y-100784819D02*
X122880952Y-99784819D01*
X123642857Y-100737200D02*
X123785714Y-100784819D01*
X123785714Y-100784819D02*
X124023809Y-100784819D01*
X124023809Y-100784819D02*
X124119047Y-100737200D01*
X124119047Y-100737200D02*
X124166666Y-100689580D01*
X124166666Y-100689580D02*
X124214285Y-100594342D01*
X124214285Y-100594342D02*
X124214285Y-100499104D01*
X124214285Y-100499104D02*
X124166666Y-100403866D01*
X124166666Y-100403866D02*
X124119047Y-100356247D01*
X124119047Y-100356247D02*
X124023809Y-100308628D01*
X124023809Y-100308628D02*
X123833333Y-100261009D01*
X123833333Y-100261009D02*
X123738095Y-100213390D01*
X123738095Y-100213390D02*
X123690476Y-100165771D01*
X123690476Y-100165771D02*
X123642857Y-100070533D01*
X123642857Y-100070533D02*
X123642857Y-99975295D01*
X123642857Y-99975295D02*
X123690476Y-99880057D01*
X123690476Y-99880057D02*
X123738095Y-99832438D01*
X123738095Y-99832438D02*
X123833333Y-99784819D01*
X123833333Y-99784819D02*
X124071428Y-99784819D01*
X124071428Y-99784819D02*
X124214285Y-99832438D01*
X125166666Y-100784819D02*
X124595238Y-100784819D01*
X124880952Y-100784819D02*
X124880952Y-99784819D01*
X124880952Y-99784819D02*
X124785714Y-99927676D01*
X124785714Y-99927676D02*
X124690476Y-100022914D01*
X124690476Y-100022914D02*
X124595238Y-100070533D01*
X144738095Y-99304819D02*
X144738095Y-100114342D01*
X144738095Y-100114342D02*
X144785714Y-100209580D01*
X144785714Y-100209580D02*
X144833333Y-100257200D01*
X144833333Y-100257200D02*
X144928571Y-100304819D01*
X144928571Y-100304819D02*
X145119047Y-100304819D01*
X145119047Y-100304819D02*
X145214285Y-100257200D01*
X145214285Y-100257200D02*
X145261904Y-100209580D01*
X145261904Y-100209580D02*
X145309523Y-100114342D01*
X145309523Y-100114342D02*
X145309523Y-99304819D01*
X146214285Y-99638152D02*
X146214285Y-100304819D01*
X145976190Y-99257200D02*
X145738095Y-99971485D01*
X145738095Y-99971485D02*
X146357142Y-99971485D01*
X120416667Y-87907200D02*
X120559524Y-87954819D01*
X120559524Y-87954819D02*
X120797619Y-87954819D01*
X120797619Y-87954819D02*
X120892857Y-87907200D01*
X120892857Y-87907200D02*
X120940476Y-87859580D01*
X120940476Y-87859580D02*
X120988095Y-87764342D01*
X120988095Y-87764342D02*
X120988095Y-87669104D01*
X120988095Y-87669104D02*
X120940476Y-87573866D01*
X120940476Y-87573866D02*
X120892857Y-87526247D01*
X120892857Y-87526247D02*
X120797619Y-87478628D01*
X120797619Y-87478628D02*
X120607143Y-87431009D01*
X120607143Y-87431009D02*
X120511905Y-87383390D01*
X120511905Y-87383390D02*
X120464286Y-87335771D01*
X120464286Y-87335771D02*
X120416667Y-87240533D01*
X120416667Y-87240533D02*
X120416667Y-87145295D01*
X120416667Y-87145295D02*
X120464286Y-87050057D01*
X120464286Y-87050057D02*
X120511905Y-87002438D01*
X120511905Y-87002438D02*
X120607143Y-86954819D01*
X120607143Y-86954819D02*
X120845238Y-86954819D01*
X120845238Y-86954819D02*
X120988095Y-87002438D01*
X121321429Y-86954819D02*
X121559524Y-87954819D01*
X121559524Y-87954819D02*
X121750000Y-87240533D01*
X121750000Y-87240533D02*
X121940476Y-87954819D01*
X121940476Y-87954819D02*
X122178572Y-86954819D01*
X123083333Y-87954819D02*
X122511905Y-87954819D01*
X122797619Y-87954819D02*
X122797619Y-86954819D01*
X122797619Y-86954819D02*
X122702381Y-87097676D01*
X122702381Y-87097676D02*
X122607143Y-87192914D01*
X122607143Y-87192914D02*
X122511905Y-87240533D01*
D11*
X155872142Y-87890869D02*
X155872142Y-86747869D01*
X155872142Y-86747869D02*
X156253142Y-87564298D01*
X156253142Y-87564298D02*
X156634142Y-86747869D01*
X156634142Y-86747869D02*
X156634142Y-87890869D01*
X157178428Y-87890869D02*
X157178428Y-86747869D01*
X157831571Y-87890869D02*
X157341714Y-87237726D01*
X157831571Y-86747869D02*
X157178428Y-87401012D01*
X158267000Y-86856726D02*
X158321428Y-86802298D01*
X158321428Y-86802298D02*
X158430286Y-86747869D01*
X158430286Y-86747869D02*
X158702428Y-86747869D01*
X158702428Y-86747869D02*
X158811286Y-86802298D01*
X158811286Y-86802298D02*
X158865714Y-86856726D01*
X158865714Y-86856726D02*
X158920143Y-86965583D01*
X158920143Y-86965583D02*
X158920143Y-87074441D01*
X158920143Y-87074441D02*
X158865714Y-87237726D01*
X158865714Y-87237726D02*
X158212571Y-87890869D01*
X158212571Y-87890869D02*
X158920143Y-87890869D01*
D12*
X141019009Y-87774716D02*
X141019009Y-86758716D01*
X141502819Y-87774716D02*
X141502819Y-86758716D01*
X141502819Y-86758716D02*
X142083391Y-87774716D01*
X142083391Y-87774716D02*
X142083391Y-86758716D01*
X142567200Y-87774716D02*
X142567200Y-86758716D01*
X142567200Y-86758716D02*
X142905867Y-87484431D01*
X142905867Y-87484431D02*
X143244534Y-86758716D01*
X143244534Y-86758716D02*
X143244534Y-87774716D01*
X143728343Y-87774716D02*
X143728343Y-86758716D01*
X143728343Y-86758716D02*
X144115391Y-86758716D01*
X144115391Y-86758716D02*
X144212153Y-86807097D01*
X144212153Y-86807097D02*
X144260534Y-86855478D01*
X144260534Y-86855478D02*
X144308915Y-86952240D01*
X144308915Y-86952240D02*
X144308915Y-87097383D01*
X144308915Y-87097383D02*
X144260534Y-87194145D01*
X144260534Y-87194145D02*
X144212153Y-87242526D01*
X144212153Y-87242526D02*
X144115391Y-87290907D01*
X144115391Y-87290907D02*
X143728343Y-87290907D01*
X145179772Y-87097383D02*
X145179772Y-87774716D01*
X144937867Y-86710336D02*
X144695962Y-87436050D01*
X144695962Y-87436050D02*
X145324915Y-87436050D01*
X146147391Y-87097383D02*
X146147391Y-87774716D01*
X145905486Y-86710336D02*
X145663581Y-87436050D01*
X145663581Y-87436050D02*
X146292534Y-87436050D01*
X147211772Y-87774716D02*
X146631200Y-87774716D01*
X146921486Y-87774716D02*
X146921486Y-86758716D01*
X146921486Y-86758716D02*
X146824724Y-86903859D01*
X146824724Y-86903859D02*
X146727962Y-87000621D01*
X146727962Y-87000621D02*
X146631200Y-87049002D01*
D10*
X137666667Y-88157200D02*
X137809524Y-88204819D01*
X137809524Y-88204819D02*
X138047619Y-88204819D01*
X138047619Y-88204819D02*
X138142857Y-88157200D01*
X138142857Y-88157200D02*
X138190476Y-88109580D01*
X138190476Y-88109580D02*
X138238095Y-88014342D01*
X138238095Y-88014342D02*
X138238095Y-87919104D01*
X138238095Y-87919104D02*
X138190476Y-87823866D01*
X138190476Y-87823866D02*
X138142857Y-87776247D01*
X138142857Y-87776247D02*
X138047619Y-87728628D01*
X138047619Y-87728628D02*
X137857143Y-87681009D01*
X137857143Y-87681009D02*
X137761905Y-87633390D01*
X137761905Y-87633390D02*
X137714286Y-87585771D01*
X137714286Y-87585771D02*
X137666667Y-87490533D01*
X137666667Y-87490533D02*
X137666667Y-87395295D01*
X137666667Y-87395295D02*
X137714286Y-87300057D01*
X137714286Y-87300057D02*
X137761905Y-87252438D01*
X137761905Y-87252438D02*
X137857143Y-87204819D01*
X137857143Y-87204819D02*
X138095238Y-87204819D01*
X138095238Y-87204819D02*
X138238095Y-87252438D01*
X138571429Y-87204819D02*
X138809524Y-88204819D01*
X138809524Y-88204819D02*
X139000000Y-87490533D01*
X139000000Y-87490533D02*
X139190476Y-88204819D01*
X139190476Y-88204819D02*
X139428572Y-87204819D01*
X139761905Y-87300057D02*
X139809524Y-87252438D01*
X139809524Y-87252438D02*
X139904762Y-87204819D01*
X139904762Y-87204819D02*
X140142857Y-87204819D01*
X140142857Y-87204819D02*
X140238095Y-87252438D01*
X140238095Y-87252438D02*
X140285714Y-87300057D01*
X140285714Y-87300057D02*
X140333333Y-87395295D01*
X140333333Y-87395295D02*
X140333333Y-87490533D01*
X140333333Y-87490533D02*
X140285714Y-87633390D01*
X140285714Y-87633390D02*
X139714286Y-88204819D01*
X139714286Y-88204819D02*
X140333333Y-88204819D01*
D13*
%TO.C,U3*%
X128700000Y-90700000D02*
X129175000Y-90700000D01*
X128700000Y-91175000D02*
X128700000Y-90700000D01*
X128700000Y-93920000D02*
X128700000Y-93445000D01*
X129175000Y-93920000D02*
X128700000Y-93920000D01*
X131445000Y-90700000D02*
X131920000Y-90700000D01*
X131920000Y-90700000D02*
X131920000Y-91175000D01*
X131920000Y-93445000D02*
X131920000Y-93920000D01*
X131920000Y-93920000D02*
X131445000Y-93920000D01*
X128190000Y-91560000D02*
X127860000Y-91800000D01*
X127860000Y-91320000D01*
X128190000Y-91560000D01*
G36*
X128190000Y-91560000D02*
G01*
X127860000Y-91800000D01*
X127860000Y-91320000D01*
X128190000Y-91560000D01*
G37*
%TO.C,C3*%
X115034420Y-109340000D02*
X115315580Y-109340000D01*
X115034420Y-110360000D02*
X115315580Y-110360000D01*
D14*
%TO.C,U6*%
X111700000Y-120500000D02*
X117900000Y-120500000D01*
X111700000Y-138500000D02*
X111700000Y-120500000D01*
X117900000Y-115550000D02*
X117900000Y-120500000D01*
X117900000Y-138500000D02*
X111700000Y-138500000D01*
X117900000Y-138500000D02*
X117900000Y-143450000D01*
X117900000Y-143450000D02*
X166100000Y-143450000D01*
X166100000Y-115550000D02*
X117900000Y-115550000D01*
X166100000Y-125440000D02*
X166100000Y-115550000D01*
X166100000Y-133570000D02*
X167000000Y-133570000D01*
X166100000Y-143450000D02*
X166100000Y-133570000D01*
X167000000Y-125440000D02*
X166100000Y-125440000D01*
X167000000Y-133570000D02*
X167000000Y-125440000D01*
D15*
X119130000Y-144070000D02*
G75*
G02*
X118930000Y-144070000I-100000J0D01*
G01*
X118930000Y-144070000D02*
G75*
G02*
X119130000Y-144070000I100000J0D01*
G01*
D14*
%TO.C,U5*%
X111880000Y-54430000D02*
X111880000Y-83640000D01*
X114420000Y-86180000D02*
X165220000Y-86180000D01*
X165220000Y-51890000D02*
X114420000Y-51890000D01*
X167760000Y-83640000D02*
X167760000Y-54430000D01*
X111880000Y-54430000D02*
G75*
G02*
X114420000Y-51890000I2540001J-1D01*
G01*
X114420000Y-86180000D02*
G75*
G02*
X111880000Y-83640000I1J2540001D01*
G01*
X165220000Y-51890000D02*
G75*
G02*
X167760000Y-54430000I0J-2540000D01*
G01*
X167760000Y-83640000D02*
G75*
G02*
X165220000Y-86180000I-2540000J0D01*
G01*
D15*
X111230000Y-57605000D02*
G75*
G02*
X111030000Y-57605000I-100000J0D01*
G01*
X111030000Y-57605000D02*
G75*
G02*
X111230000Y-57605000I100000J0D01*
G01*
D13*
%TO.C,BT1*%
X112340000Y-100940000D02*
X112340000Y-101860000D01*
X112340000Y-101860000D02*
X113940000Y-101860000D01*
X112340000Y-106140000D02*
X112340000Y-107060000D01*
X112340000Y-107060000D02*
X120160000Y-107060000D01*
X113940000Y-100940000D02*
X113940000Y-101860000D01*
X113940000Y-101860000D02*
X113940000Y-102140000D01*
X113940000Y-105860000D02*
X112725000Y-105860000D01*
X113940000Y-105860000D02*
X113940000Y-106140000D01*
X113940000Y-106140000D02*
X112340000Y-106140000D01*
X113940000Y-107060000D02*
X113940000Y-106140000D01*
X115800000Y-103500000D02*
X120160000Y-103500000D01*
X115800000Y-104500000D02*
X115800000Y-103500000D01*
X116300000Y-101700000D02*
X117900000Y-101700000D01*
X116300000Y-102700000D02*
X116300000Y-101700000D01*
X116300000Y-105300000D02*
X116300000Y-106300000D01*
X116300000Y-106300000D02*
X117900000Y-106300000D01*
X117900000Y-101700000D02*
X117900000Y-102700000D01*
X117900000Y-102700000D02*
X116300000Y-102700000D01*
X117900000Y-105300000D02*
X116300000Y-105300000D01*
X117900000Y-105300000D02*
X120160000Y-105300000D01*
X117900000Y-105800000D02*
X120160000Y-105800000D01*
X117900000Y-106300000D02*
X117900000Y-105300000D01*
X120160000Y-100940000D02*
X112340000Y-100940000D01*
X120160000Y-104500000D02*
X115800000Y-104500000D01*
X120160000Y-107060000D02*
X120160000Y-100940000D01*
%TO.C,SW3*%
X159500000Y-91500000D02*
X159500000Y-93000000D01*
X160750000Y-95500000D02*
X165250000Y-95500000D01*
X165250000Y-89000000D02*
X160750000Y-89000000D01*
X166500000Y-93000000D02*
X166500000Y-91500000D01*
%TO.C,U2*%
X126890000Y-106140000D02*
X127640000Y-106140000D01*
X126890000Y-106890000D02*
X126890000Y-106140000D01*
X126890000Y-112360000D02*
X126890000Y-111610000D01*
X127640000Y-112360000D02*
X126890000Y-112360000D01*
X132360000Y-106140000D02*
X133110000Y-106140000D01*
X133110000Y-106140000D02*
X133110000Y-106890000D01*
X133110000Y-111610000D02*
X133110000Y-112360000D01*
X133110000Y-112360000D02*
X132360000Y-112360000D01*
X126360000Y-107300000D02*
X126030000Y-107540000D01*
X126030000Y-107060000D01*
X126360000Y-107300000D01*
G36*
X126360000Y-107300000D02*
G01*
X126030000Y-107540000D01*
X126030000Y-107060000D01*
X126360000Y-107300000D01*
G37*
%TO.C,RV1*%
X155580000Y-101280000D02*
X155580000Y-102879000D01*
X155580000Y-101280000D02*
X159445000Y-101280000D01*
X155580000Y-104621000D02*
X155580000Y-105380000D01*
X155580000Y-107121000D02*
X155580000Y-107880000D01*
X155580000Y-109620000D02*
X155580000Y-111220000D01*
X155580000Y-111220000D02*
X159445000Y-111220000D01*
X156700000Y-106250000D02*
X155950000Y-106250000D01*
X157200000Y-103750000D02*
X155950000Y-103750000D01*
X157200000Y-104750000D02*
X157200000Y-103750000D01*
X157200000Y-107750000D02*
X157200000Y-108750000D01*
X157200000Y-108750000D02*
X155950000Y-108750000D01*
X163955000Y-101280000D02*
X167820000Y-101280000D01*
X163955000Y-111220000D02*
X167820000Y-111220000D01*
X167820000Y-101280000D02*
X167820000Y-111220000D01*
X156700000Y-104750000D02*
X157700000Y-104750000D01*
X157700000Y-107750000D01*
X156700000Y-107750000D01*
X156700000Y-104750000D01*
X156700000Y-106250000D02*
X156325000Y-106450000D01*
X156325000Y-106050000D01*
X156700000Y-106250000D01*
G36*
X156700000Y-106250000D02*
G01*
X156325000Y-106450000D01*
X156325000Y-106050000D01*
X156700000Y-106250000D01*
G37*
%TO.C,C1*%
X130609420Y-98980000D02*
X130890580Y-98980000D01*
X130609420Y-100000000D02*
X130890580Y-100000000D01*
%TO.C,C2*%
X130609420Y-101490000D02*
X130890580Y-101490000D01*
X130609420Y-102510000D02*
X130890580Y-102510000D01*
%TO.C,R1*%
X114937742Y-111837500D02*
X115412258Y-111837500D01*
X114937742Y-112882500D02*
X115412258Y-112882500D01*
%TO.C,J1*%
X156895000Y-45010000D02*
X156895000Y-46890000D01*
X163605000Y-45010000D02*
X163605000Y-46890000D01*
%TO.C,LS1*%
X122620000Y-101330000D02*
X124000000Y-101330000D01*
X122620000Y-102710000D02*
X122620000Y-101330000D01*
X122620000Y-103980000D02*
X122620000Y-106630000D01*
X122620000Y-103980000D02*
X125380000Y-103980000D01*
X122620000Y-106630000D02*
X125380000Y-106630000D01*
X125380000Y-103980000D02*
X125380000Y-106630000D01*
%TO.C,U4*%
X140675000Y-101300000D02*
X140675000Y-102250000D01*
X140675000Y-111700000D02*
X140675000Y-110750000D01*
X142040000Y-101300000D02*
X140675000Y-101300000D01*
X142040000Y-111700000D02*
X140675000Y-111700000D01*
X137850000Y-102290000D02*
X137510000Y-101820000D01*
X138190000Y-101820000D01*
X137850000Y-102290000D01*
G36*
X137850000Y-102290000D02*
G01*
X137510000Y-101820000D01*
X138190000Y-101820000D01*
X137850000Y-102290000D01*
G37*
%TO.C,SW1*%
X118250000Y-91000000D02*
X118250000Y-92500000D01*
X119500000Y-95000000D02*
X124000000Y-95000000D01*
X124000000Y-88500000D02*
X119500000Y-88500000D01*
X125250000Y-92500000D02*
X125250000Y-91000000D01*
D16*
%TO.C,MK2*%
X157560000Y-93310000D02*
G75*
G02*
X144860000Y-93310000I-6350000J0D01*
G01*
X144860000Y-93310000D02*
G75*
G02*
X157560000Y-93310000I6350000J0D01*
G01*
D13*
%TO.C,SW2*%
X135500000Y-91250000D02*
X135500000Y-92750000D01*
X136750000Y-95250000D02*
X141250000Y-95250000D01*
X141250000Y-88750000D02*
X136750000Y-88750000D01*
X142500000Y-92750000D02*
X142500000Y-91250000D01*
%TD*%
M02*
