%TF.GenerationSoftware,KiCad,Pcbnew,9.0.5*%
%TF.CreationDate,2025-11-09T15:59:44-08:00*%
%TF.ProjectId,Radio,52616469-6f2e-46b6-9963-61645f706362,rev?*%
%TF.SameCoordinates,Original*%
%TF.FileFunction,Soldermask,Top*%
%TF.FilePolarity,Negative*%
%FSLAX46Y46*%
G04 Gerber Fmt 4.6, Leading zero omitted, Abs format (unit mm)*
G04 Created by KiCad (PCBNEW 9.0.5) date 2025-11-09 15:59:44*
%MOMM*%
%LPD*%
G01*
G04 APERTURE LIST*
G04 Aperture macros list*
%AMRoundRect*
0 Rectangle with rounded corners*
0 $1 Rounding radius*
0 $2 $3 $4 $5 $6 $7 $8 $9 X,Y pos of 4 corners*
0 Add a 4 corners polygon primitive as box body*
4,1,4,$2,$3,$4,$5,$6,$7,$8,$9,$2,$3,0*
0 Add four circle primitives for the rounded corners*
1,1,$1+$1,$2,$3*
1,1,$1+$1,$4,$5*
1,1,$1+$1,$6,$7*
1,1,$1+$1,$8,$9*
0 Add four rect primitives between the rounded corners*
20,1,$1+$1,$2,$3,$4,$5,0*
20,1,$1+$1,$4,$5,$6,$7,0*
20,1,$1+$1,$6,$7,$8,$9,0*
20,1,$1+$1,$8,$9,$2,$3,0*%
%AMFreePoly0*
4,1,25,-1.500000,1.420000,-1.360000,1.280000,-1.205000,1.155000,-1.035000,1.045000,-0.860000,0.950000,-0.675000,0.875000,-0.480000,0.820000,-0.280000,0.780000,-0.085000,0.765000,0.085000,0.765000,0.280000,0.780000,0.480000,0.820000,0.675000,0.875000,0.860000,0.950000,1.035000,1.045000,1.205000,1.155000,1.360000,1.280000,1.500000,1.420000,1.645000,1.595000,3.555000,1.595000,
3.555000,-0.755000,-3.555000,-0.755000,-3.555000,1.595000,-1.645000,1.595000,-1.500000,1.420000,-1.500000,1.420000,$1*%
G04 Aperture macros list end*
%ADD10C,0.880000*%
%ADD11RoundRect,0.225000X-0.225000X-0.250000X0.225000X-0.250000X0.225000X0.250000X-0.225000X0.250000X0*%
%ADD12RoundRect,0.250000X-0.350000X-0.625000X0.350000X-0.625000X0.350000X0.625000X-0.350000X0.625000X0*%
%ADD13O,1.200000X1.750000*%
%ADD14C,2.000000*%
%ADD15C,2.200000*%
%ADD16RoundRect,0.102000X-0.889000X-0.889000X0.889000X-0.889000X0.889000X0.889000X-0.889000X0.889000X0*%
%ADD17C,1.982000*%
%ADD18RoundRect,0.062500X-0.350000X-0.062500X0.350000X-0.062500X0.350000X0.062500X-0.350000X0.062500X0*%
%ADD19RoundRect,0.062500X-0.062500X-0.350000X0.062500X-0.350000X0.062500X0.350000X-0.062500X0.350000X0*%
%ADD20R,1.230000X1.230000*%
%ADD21RoundRect,0.200000X-0.200000X-0.275000X0.200000X-0.275000X0.200000X0.275000X-0.200000X0.275000X0*%
%ADD22RoundRect,0.075000X-0.312500X-0.075000X0.312500X-0.075000X0.312500X0.075000X-0.312500X0.075000X0*%
%ADD23RoundRect,0.075000X-0.075000X-0.312500X0.075000X-0.312500X0.075000X0.312500X-0.075000X0.312500X0*%
%ADD24R,4.800000X4.800000*%
%ADD25C,4.000000*%
%ADD26C,1.800000*%
%ADD27RoundRect,0.250000X-2.050000X-0.300000X2.050000X-0.300000X2.050000X0.300000X-2.050000X0.300000X0*%
%ADD28RoundRect,0.250002X-4.449998X-5.149998X4.449998X-5.149998X4.449998X5.149998X-4.449998X5.149998X0*%
%ADD29C,0.750000*%
%ADD30RoundRect,0.102000X-0.200000X-0.300000X0.200000X-0.300000X0.200000X0.300000X-0.200000X0.300000X0*%
%ADD31RoundRect,0.102000X-0.765000X-0.765000X0.765000X-0.765000X0.765000X0.765000X-0.765000X0.765000X0*%
%ADD32C,1.734000*%
%ADD33R,1.700000X1.700000*%
%ADD34C,1.700000*%
%ADD35C,1.730000*%
%ADD36FreePoly0,180.000000*%
%ADD37FreePoly0,0.000000*%
G04 APERTURE END LIST*
D10*
%TO.C,MK2*%
X177280000Y-84170000D02*
G75*
G02*
X176400000Y-84170000I-440000J0D01*
G01*
X176400000Y-84170000D02*
G75*
G02*
X177280000Y-84170000I440000J0D01*
G01*
%TD*%
D11*
%TO.C,C2*%
X185225000Y-119750000D03*
X186775000Y-119750000D03*
%TD*%
D12*
%TO.C,BT1*%
X160250000Y-125800000D03*
D13*
X162250000Y-125800000D03*
%TD*%
D14*
%TO.C,SW2*%
X161557500Y-90430000D03*
X168057500Y-90430000D03*
X161557500Y-94930000D03*
X168057500Y-94930000D03*
%TD*%
D11*
%TO.C,C3*%
X185200000Y-122750000D03*
X186750000Y-122750000D03*
%TD*%
D15*
%TO.C,U5*%
X133532500Y-47330000D03*
X133532500Y-76540000D03*
X184332500Y-47330000D03*
X184332500Y-76540000D03*
D16*
X133532500Y-50505000D03*
D17*
X133532500Y-53045000D03*
X133532500Y-55585000D03*
X133532500Y-58125000D03*
X133532500Y-60665000D03*
X133532500Y-63205000D03*
X133532500Y-65745000D03*
X133532500Y-68285000D03*
X133532500Y-70825000D03*
X133532500Y-73365000D03*
%TD*%
D18*
%TO.C,U3*%
X182502500Y-83440000D03*
X182502500Y-83940000D03*
X182502500Y-84440000D03*
X182502500Y-84940000D03*
D19*
X183190000Y-85627500D03*
X183690000Y-85627500D03*
X184190000Y-85627500D03*
X184690000Y-85627500D03*
D18*
X185377500Y-84940000D03*
X185377500Y-84440000D03*
X185377500Y-83940000D03*
X185377500Y-83440000D03*
D19*
X184690000Y-82752500D03*
X184190000Y-82752500D03*
X183690000Y-82752500D03*
X183190000Y-82752500D03*
D20*
X183940000Y-84190000D03*
%TD*%
D21*
%TO.C,R1*%
X185175000Y-126250000D03*
X186825000Y-126250000D03*
%TD*%
D22*
%TO.C,U2*%
X172412500Y-97950000D03*
X172412500Y-98600000D03*
X172412500Y-99250000D03*
X172412500Y-99900000D03*
X172412500Y-100550000D03*
X172412500Y-101200000D03*
X172412500Y-101850000D03*
D23*
X173450000Y-102887500D03*
X174100000Y-102887500D03*
X174750000Y-102887500D03*
X175400000Y-102887500D03*
X176050000Y-102887500D03*
X176700000Y-102887500D03*
X177350000Y-102887500D03*
D22*
X178387500Y-101850000D03*
X178387500Y-101200000D03*
X178387500Y-100550000D03*
X178387500Y-99900000D03*
X178387500Y-99250000D03*
X178387500Y-98600000D03*
X178387500Y-97950000D03*
D23*
X177350000Y-96912500D03*
X176700000Y-96912500D03*
X176050000Y-96912500D03*
X175400000Y-96912500D03*
X174750000Y-96912500D03*
X174100000Y-96912500D03*
X173450000Y-96912500D03*
D24*
X175400000Y-99900000D03*
%TD*%
D25*
%TO.C,RV1*%
X175950000Y-122350000D03*
X175950000Y-131150000D03*
D26*
X168950000Y-129250000D03*
X168950000Y-126750000D03*
X168950000Y-124250000D03*
%TD*%
D14*
%TO.C,SW3*%
X161557500Y-98980000D03*
X168057500Y-98980000D03*
X161557500Y-103480000D03*
X168057500Y-103480000D03*
%TD*%
D27*
%TO.C,U4*%
X161775000Y-109325000D03*
X161775000Y-111025000D03*
X161775000Y-112725000D03*
X161775000Y-114425000D03*
X161775000Y-116125000D03*
D28*
X170925000Y-112725000D03*
%TD*%
D29*
%TO.C,MK2*%
X176840000Y-84170000D03*
D30*
X180000000Y-82840000D03*
X178950000Y-82840000D03*
X177900000Y-82840000D03*
X176850000Y-82840000D03*
X176850000Y-85500000D03*
X177900000Y-85500000D03*
X178950000Y-85500000D03*
X180000000Y-85500000D03*
%TD*%
D11*
%TO.C,C1*%
X185225000Y-116750000D03*
X186775000Y-116750000D03*
%TD*%
D31*
%TO.C,U6*%
X129350000Y-90900000D03*
D32*
X129350000Y-93440000D03*
X129350000Y-95980000D03*
X129350000Y-98520000D03*
X129350000Y-101060000D03*
X129350000Y-103600000D03*
X129350000Y-106140000D03*
X129350000Y-108680000D03*
X129350000Y-111220000D03*
X129350000Y-113760000D03*
X129350000Y-116300000D03*
X129350000Y-118840000D03*
X129350000Y-121380000D03*
X129350000Y-123920000D03*
X129350000Y-126460000D03*
X129350000Y-129000000D03*
X129350000Y-131540000D03*
X129350000Y-134080000D03*
X129350000Y-136620000D03*
X154750000Y-136620000D03*
X154750000Y-134080000D03*
X154750000Y-131540000D03*
X154750000Y-129000000D03*
X154750000Y-126460000D03*
X154750000Y-123920000D03*
X154750000Y-121380000D03*
X154750000Y-118840000D03*
X154750000Y-116300000D03*
X154750000Y-113760000D03*
X154750000Y-111220000D03*
X154750000Y-108680000D03*
X154750000Y-106140000D03*
X154750000Y-103600000D03*
X154750000Y-101060000D03*
X154750000Y-98520000D03*
X154750000Y-95980000D03*
X154750000Y-93440000D03*
X154750000Y-90900000D03*
%TD*%
D33*
%TO.C,LS1*%
X172377500Y-82150000D03*
D34*
X172377500Y-84690000D03*
%TD*%
D14*
%TO.C,SW1*%
X161557500Y-81880000D03*
X168057500Y-81880000D03*
X161557500Y-86380000D03*
X168057500Y-86380000D03*
%TD*%
D35*
%TO.C,J1*%
X188750000Y-99500000D03*
D36*
X188750000Y-96700000D03*
D37*
X188750000Y-102300000D03*
%TD*%
M02*
