%TF.GenerationSoftware,KiCad,Pcbnew,9.0.5*%
%TF.CreationDate,2025-11-09T15:59:44-08:00*%
%TF.ProjectId,Radio,52616469-6f2e-46b6-9963-61645f706362,rev?*%
%TF.SameCoordinates,Original*%
%TF.FileFunction,Copper,L2,Bot*%
%TF.FilePolarity,Positive*%
%FSLAX46Y46*%
G04 Gerber Fmt 4.6, Leading zero omitted, Abs format (unit mm)*
G04 Created by KiCad (PCBNEW 9.0.5) date 2025-11-09 15:59:44*
%MOMM*%
%LPD*%
G01*
G04 APERTURE LIST*
G04 Aperture macros list*
%AMRoundRect*
0 Rectangle with rounded corners*
0 $1 Rounding radius*
0 $2 $3 $4 $5 $6 $7 $8 $9 X,Y pos of 4 corners*
0 Add a 4 corners polygon primitive as box body*
4,1,4,$2,$3,$4,$5,$6,$7,$8,$9,$2,$3,0*
0 Add four circle primitives for the rounded corners*
1,1,$1+$1,$2,$3*
1,1,$1+$1,$4,$5*
1,1,$1+$1,$6,$7*
1,1,$1+$1,$8,$9*
0 Add four rect primitives between the rounded corners*
20,1,$1+$1,$2,$3,$4,$5,0*
20,1,$1+$1,$4,$5,$6,$7,0*
20,1,$1+$1,$6,$7,$8,$9,0*
20,1,$1+$1,$8,$9,$2,$3,0*%
G04 Aperture macros list end*
%TA.AperFunction,Conductor*%
%ADD10C,0.200000*%
%TD*%
%TA.AperFunction,ComponentPad*%
%ADD11RoundRect,0.250000X-0.350000X-0.625000X0.350000X-0.625000X0.350000X0.625000X-0.350000X0.625000X0*%
%TD*%
%TA.AperFunction,ComponentPad*%
%ADD12O,1.200000X1.750000*%
%TD*%
%TA.AperFunction,ComponentPad*%
%ADD13C,2.000000*%
%TD*%
%TA.AperFunction,ComponentPad*%
%ADD14R,1.778000X1.778000*%
%TD*%
%TA.AperFunction,ComponentPad*%
%ADD15C,1.778000*%
%TD*%
%TA.AperFunction,WasherPad*%
%ADD16C,4.000000*%
%TD*%
%TA.AperFunction,ComponentPad*%
%ADD17C,1.800000*%
%TD*%
%TA.AperFunction,ComponentPad*%
%ADD18R,1.530000X1.530000*%
%TD*%
%TA.AperFunction,ComponentPad*%
%ADD19C,1.530000*%
%TD*%
%TA.AperFunction,ComponentPad*%
%ADD20R,1.700000X1.700000*%
%TD*%
%TA.AperFunction,ComponentPad*%
%ADD21C,1.700000*%
%TD*%
%TA.AperFunction,ViaPad*%
%ADD22C,0.600000*%
%TD*%
G04 APERTURE END LIST*
D10*
%TO.N,GND*%
X181000000Y-80250000D02*
X184000000Y-80250000D01*
%TD*%
D11*
%TO.P,BT1,1,+*%
%TO.N,Net-(BT1-+)*%
X160250000Y-125800000D03*
D12*
%TO.P,BT1,2,-*%
%TO.N,GND*%
X162250000Y-125800000D03*
%TD*%
D13*
%TO.P,SW2,1,1*%
%TO.N,Net-(U6-IO34)*%
X161557500Y-90430000D03*
X168057500Y-90430000D03*
%TO.P,SW2,2,2*%
%TO.N,GND*%
X161557500Y-94930000D03*
X168057500Y-94930000D03*
%TD*%
D14*
%TO.P,U5,1,LITE*%
%TO.N,+3V3*%
X133532500Y-50505000D03*
D15*
%TO.P,U5,2,MISO*%
%TO.N,unconnected-(U5-MISO-Pad2)*%
X133532500Y-53045000D03*
%TO.P,U5,3,SCK*%
%TO.N,Net-(U5-SCK)*%
X133532500Y-55585000D03*
%TO.P,U5,4,MOSI*%
%TO.N,Net-(U5-MOSI)*%
X133532500Y-58125000D03*
%TO.P,U5,5,TFT_CS*%
%TO.N,Net-(U5-TFT_CS)*%
X133532500Y-60665000D03*
%TO.P,U5,6,CARD_CS*%
%TO.N,unconnected-(U5-CARD_CS-Pad6)*%
X133532500Y-63205000D03*
%TO.P,U5,7,D/C*%
%TO.N,Net-(U5-D{slash}C)*%
X133532500Y-65745000D03*
%TO.P,U5,8,RESET*%
%TO.N,Net-(U5-RESET)*%
X133532500Y-68285000D03*
%TO.P,U5,9,VCC*%
%TO.N,+3V3*%
X133532500Y-70825000D03*
%TO.P,U5,10,GND*%
%TO.N,GND*%
X133532500Y-73365000D03*
%TD*%
D16*
%TO.P,RV1,*%
%TO.N,*%
X175950000Y-122350000D03*
X175950000Y-131150000D03*
D17*
%TO.P,RV1,1,1*%
%TO.N,+3V3*%
X168950000Y-129250000D03*
%TO.P,RV1,2,2*%
%TO.N,Net-(U6-IO16)*%
X168950000Y-126750000D03*
%TO.P,RV1,3,3*%
%TO.N,GND*%
X168950000Y-124250000D03*
%TD*%
D13*
%TO.P,SW3,1,1*%
%TO.N,Net-(U6-IO35)*%
X161557500Y-98980000D03*
X168057500Y-98980000D03*
%TO.P,SW3,2,2*%
%TO.N,GND*%
X161557500Y-103480000D03*
X168057500Y-103480000D03*
%TD*%
D18*
%TO.P,U6,1,3V3*%
%TO.N,+3V3*%
X129350000Y-90900000D03*
D19*
%TO.P,U6,2,EN*%
%TO.N,Net-(U6-EN)*%
X129350000Y-93440000D03*
%TO.P,U6,3,SENSOR_VP*%
%TO.N,unconnected-(U6-SENSOR_VP-Pad3)*%
X129350000Y-95980000D03*
%TO.P,U6,4,SENSOR_VN*%
%TO.N,unconnected-(U6-SENSOR_VN-Pad4)*%
X129350000Y-98520000D03*
%TO.P,U6,5,IO34*%
%TO.N,Net-(U6-IO34)*%
X129350000Y-101060000D03*
%TO.P,U6,6,IO35*%
%TO.N,Net-(U6-IO35)*%
X129350000Y-103600000D03*
%TO.P,U6,7,IO32*%
%TO.N,Net-(U6-IO32)*%
X129350000Y-106140000D03*
%TO.P,U6,8,IO33*%
%TO.N,Net-(MK2-WS)*%
X129350000Y-108680000D03*
%TO.P,U6,9,IO25*%
%TO.N,Net-(MK2-SCK)*%
X129350000Y-111220000D03*
%TO.P,U6,10,IO26*%
%TO.N,Net-(MK2-SD)*%
X129350000Y-113760000D03*
%TO.P,U6,11,IO27*%
%TO.N,unconnected-(U6-IO27-Pad11)*%
X129350000Y-116300000D03*
%TO.P,U6,12,IO14*%
%TO.N,Net-(U2-~{RESET})*%
X129350000Y-118840000D03*
%TO.P,U6,13,IO12*%
%TO.N,Net-(U5-MOSI)*%
X129350000Y-121380000D03*
%TO.P,U6,14,GND1*%
%TO.N,GND*%
X129350000Y-123920000D03*
%TO.P,U6,15,IO13*%
%TO.N,Net-(U5-D{slash}C)*%
X129350000Y-126460000D03*
%TO.P,U6,16,SD2*%
%TO.N,unconnected-(U6-SD2-Pad16)*%
X129350000Y-129000000D03*
%TO.P,U6,17,SD3*%
%TO.N,Net-(U3-LRCLK)*%
X129350000Y-131540000D03*
%TO.P,U6,18,CMD*%
%TO.N,unconnected-(U6-CMD-Pad18)*%
X129350000Y-134080000D03*
%TO.P,U6,19,EXT_5V*%
%TO.N,unconnected-(U6-EXT_5V-Pad19)*%
X129350000Y-136620000D03*
%TO.P,U6,20,CLK*%
%TO.N,Net-(U5-SCK)*%
X154750000Y-136620000D03*
%TO.P,U6,21,SD0*%
%TO.N,unconnected-(U6-SD0-Pad21)*%
X154750000Y-134080000D03*
%TO.P,U6,22,SD1*%
%TO.N,Net-(U3-DIN)*%
X154750000Y-131540000D03*
%TO.P,U6,23,IO15*%
%TO.N,Net-(U5-RESET)*%
X154750000Y-129000000D03*
%TO.P,U6,24,IO2*%
%TO.N,Net-(U3-BCLK)*%
X154750000Y-126460000D03*
%TO.P,U6,25,IO0*%
%TO.N,unconnected-(U6-IO0-Pad25)*%
X154750000Y-123920000D03*
%TO.P,U6,26,IO4*%
%TO.N,Net-(U2-DIO0)*%
X154750000Y-121380000D03*
%TO.P,U6,27,IO16*%
%TO.N,Net-(U6-IO16)*%
X154750000Y-118840000D03*
%TO.P,U6,28,IO17*%
%TO.N,unconnected-(U6-IO17-Pad28)*%
X154750000Y-116300000D03*
%TO.P,U6,29,IO5*%
%TO.N,Net-(U2-NSS)*%
X154750000Y-113760000D03*
%TO.P,U6,30,IO18*%
%TO.N,Net-(U2-SCK)*%
X154750000Y-111220000D03*
%TO.P,U6,31,IO19*%
%TO.N,Net-(U2-MISO)*%
X154750000Y-108680000D03*
%TO.P,U6,32,GND2*%
%TO.N,unconnected-(U6-GND2-Pad32)*%
X154750000Y-106140000D03*
%TO.P,U6,33,IO21*%
%TO.N,unconnected-(U6-IO21-Pad33)*%
X154750000Y-103600000D03*
%TO.P,U6,34,RXD0*%
%TO.N,unconnected-(U6-RXD0-Pad34)*%
X154750000Y-101060000D03*
%TO.P,U6,35,TXD0*%
%TO.N,unconnected-(U6-TXD0-Pad35)*%
X154750000Y-98520000D03*
%TO.P,U6,36,IO22*%
%TO.N,Net-(U5-TFT_CS)*%
X154750000Y-95980000D03*
%TO.P,U6,37,IO23*%
%TO.N,Net-(U2-MOSI)*%
X154750000Y-93440000D03*
%TO.P,U6,38,GND3*%
%TO.N,unconnected-(U6-GND3-Pad38)*%
X154750000Y-90900000D03*
%TD*%
D20*
%TO.P,LS1,1,1*%
%TO.N,Net-(C2-Pad2)*%
X172377500Y-82150000D03*
D21*
%TO.P,LS1,2,2*%
%TO.N,Net-(U3-OUTN)*%
X172377500Y-84690000D03*
%TD*%
D13*
%TO.P,SW1,1,1*%
%TO.N,Net-(U6-IO32)*%
X161557500Y-81880000D03*
X168057500Y-81880000D03*
%TO.P,SW1,2,2*%
%TO.N,GND*%
X161557500Y-86380000D03*
X168057500Y-86380000D03*
%TD*%
D22*
%TO.N,GND*%
X183612600Y-93698100D03*
X181000000Y-80250000D03*
X183750000Y-80250000D03*
X174343900Y-94058900D03*
%TO.N,Net-(BT1-+)*%
X186998000Y-124240000D03*
%TO.N,Net-(U4-VI)*%
X162601000Y-108009000D03*
X186410000Y-111893000D03*
%TO.N,Net-(C2-Pad2)*%
X185561600Y-118356900D03*
X181073000Y-85927300D03*
X180425400Y-117456200D03*
%TO.N,Net-(U3-OUTP)*%
X187250000Y-92250000D03*
X185750000Y-87000000D03*
%TO.N,Net-(U4-VO)*%
X166279000Y-118666000D03*
X186410000Y-121250000D03*
%TO.N,+3V3*%
X180457900Y-129707800D03*
X129547000Y-73293000D03*
X184690000Y-87997600D03*
X177481800Y-88503100D03*
%TO.N,Net-(U3-OUTN)*%
X186844000Y-84296900D03*
%TO.N,Net-(MK2-SD)*%
X169601000Y-103310000D03*
%TO.N,Net-(MK2-SCK)*%
X139538800Y-78488400D03*
X132766200Y-108702400D03*
X180548000Y-81628000D03*
%TO.N,Net-(MK2-WS)*%
X174286000Y-87919400D03*
%TO.N,Net-(U6-EN)*%
X186410000Y-94077400D03*
X165577400Y-88792400D03*
X165573400Y-93805000D03*
%TO.N,Net-(U6-IO16)*%
X165027400Y-118928700D03*
%TO.N,Net-(U6-IO32)*%
X157101800Y-100695200D03*
%TO.N,Net-(U2-MISO)*%
X177482000Y-108923000D03*
%TO.N,Net-(U2-NSS)*%
X179946400Y-96182200D03*
X156826100Y-98006900D03*
%TO.N,Net-(U2-SCK)*%
X179750000Y-104500000D03*
X152000000Y-136000000D03*
X152250000Y-112000000D03*
%TO.N,Net-(U2-~{RESET})*%
X165572000Y-117156000D03*
%TO.N,Net-(U2-DIO0)*%
X175558000Y-119833000D03*
%TO.N,Net-(U2-MOSI)*%
X181023000Y-88139000D03*
%TO.N,Net-(U3-DIN)*%
X182500000Y-81500000D03*
X173923000Y-129126000D03*
X181000000Y-98250000D03*
%TO.N,Net-(U3-LRCLK)*%
X183360000Y-126739000D03*
%TO.N,Net-(U5-TFT_CS)*%
X135816000Y-94077400D03*
%TO.N,Net-(U5-RESET)*%
X153673000Y-70323800D03*
%TO.N,Net-(J1-In)*%
X186404000Y-99618100D03*
X177259000Y-95923000D03*
%TD*%
D10*
%TO.N,GND*%
X162250000Y-125800000D02*
X163152000Y-125800000D01*
X168058000Y-103480000D02*
X161558000Y-103480000D01*
X183251800Y-94058900D02*
X174343900Y-94058900D01*
X133532500Y-73365000D02*
X133532300Y-73365200D01*
X161557500Y-94930000D02*
X161558000Y-94930000D01*
X161557500Y-86380000D02*
X161558000Y-86380000D01*
X168057500Y-86380000D02*
X161557500Y-86380000D01*
X163318100Y-125633900D02*
X160537500Y-122853300D01*
X130416700Y-122853300D02*
X129350000Y-123920000D01*
X161557500Y-103480000D02*
X161558000Y-103480000D01*
X173472800Y-94930000D02*
X174343900Y-94058900D01*
X160537500Y-122853300D02*
X130416700Y-122853300D01*
X168058000Y-94930000D02*
X173472800Y-94930000D01*
X133532000Y-73365000D02*
X133532300Y-73365200D01*
X161558000Y-94930000D02*
X168057500Y-94930000D01*
X146548000Y-86380000D02*
X161557500Y-86380000D01*
X133532300Y-73365200D02*
X146548000Y-86380000D01*
X183612600Y-93698100D02*
X183251800Y-94058900D01*
X164702000Y-124250000D02*
X168950000Y-124250000D01*
X168057500Y-94930000D02*
X168058000Y-94930000D01*
X163318100Y-125633900D02*
X164702000Y-124250000D01*
X163152000Y-125800000D02*
X163318100Y-125633900D01*
%TO.N,Net-(BT1-+)*%
X185775000Y-125463000D02*
X167808000Y-125463000D01*
X166279000Y-126992000D02*
X161442000Y-126992000D01*
X161442000Y-126992000D02*
X160250000Y-125800000D01*
X186998000Y-124240000D02*
X185775000Y-125463000D01*
X167808000Y-125463000D02*
X166279000Y-126992000D01*
%TO.N,Net-(U4-VI)*%
X186410000Y-111893000D02*
X166484000Y-111893000D01*
X166484000Y-111893000D02*
X162601000Y-108009000D01*
%TO.N,Net-(C2-Pad2)*%
X172377500Y-82150000D02*
X172377500Y-83301700D01*
X172089500Y-83301700D02*
X172377500Y-83301700D01*
X171978700Y-85927300D02*
X171225800Y-85174400D01*
X180425400Y-117456200D02*
X184660900Y-117456200D01*
X181073000Y-85927300D02*
X171978700Y-85927300D01*
X171225800Y-84165400D02*
X172089500Y-83301700D01*
X171225800Y-85174400D02*
X171225800Y-84165400D01*
X184660900Y-117456200D02*
X185561600Y-118356900D01*
%TO.N,Net-(U3-OUTP)*%
X186250000Y-91250000D02*
X186250000Y-91000000D01*
X186000000Y-86750000D02*
X185750000Y-87000000D01*
X186250000Y-86750000D02*
X186000000Y-86750000D01*
X187250000Y-92250000D02*
X186250000Y-91250000D01*
X186250000Y-91000000D02*
X186250000Y-86750000D01*
%TO.N,Net-(U4-VO)*%
X183826000Y-118666000D02*
X186410000Y-121250000D01*
X166279000Y-118666000D02*
X183826000Y-118666000D01*
%TO.N,+3V3*%
X177481800Y-88503100D02*
X177725600Y-88746900D01*
X181657400Y-88367100D02*
X181657400Y-87997600D01*
X180457900Y-129707800D02*
X179274400Y-128524300D01*
X181657400Y-87997600D02*
X184690000Y-87997600D01*
X133532000Y-70825000D02*
X132015000Y-70825000D01*
X181657400Y-87907800D02*
X180577500Y-86827900D01*
X181657400Y-87997600D02*
X181657400Y-87907800D01*
X179274400Y-128524300D02*
X169675700Y-128524300D01*
X169675700Y-128524300D02*
X168950000Y-129250000D01*
X177725600Y-88746900D02*
X181277600Y-88746900D01*
X133455500Y-87861200D02*
X130416700Y-90900000D01*
X132015000Y-70825000D02*
X129547000Y-73293000D01*
X171248600Y-86827900D02*
X170215300Y-87861200D01*
X133532500Y-70825000D02*
X133532000Y-70825000D01*
X181277600Y-88746900D02*
X181657400Y-88367100D01*
X180577500Y-86827900D02*
X171248600Y-86827900D01*
X129350000Y-90900000D02*
X130416700Y-90900000D01*
X170215300Y-87861200D02*
X133455500Y-87861200D01*
%TO.N,Net-(U3-OUTN)*%
X172378000Y-84690000D02*
X172583000Y-84895100D01*
X172583000Y-84895100D02*
X172582600Y-84895100D01*
X172788000Y-85100200D02*
X186041000Y-85100200D01*
X172583000Y-84895100D02*
X172788000Y-85100200D01*
X186041000Y-85100200D02*
X186844000Y-84296900D01*
X172582600Y-84895100D02*
X172377500Y-84690000D01*
%TO.N,Net-(MK2-SD)*%
X169601000Y-103310000D02*
X169601000Y-103850000D01*
X169601000Y-103850000D02*
X166831000Y-106620000D01*
X156211000Y-106620000D02*
X155420000Y-107410000D01*
X166831000Y-106620000D02*
X156211000Y-106620000D01*
X135700000Y-107410000D02*
X129350000Y-113760000D01*
X155420000Y-107410000D02*
X135700000Y-107410000D01*
%TO.N,Net-(MK2-SCK)*%
X139538800Y-78488400D02*
X177408400Y-78488400D01*
X129350000Y-111220000D02*
X130248600Y-111220000D01*
X177408400Y-78488400D02*
X180548000Y-81628000D01*
X130248600Y-111220000D02*
X132766200Y-108702400D01*
%TO.N,Net-(MK2-WS)*%
X157264000Y-97382600D02*
X161967000Y-92680000D01*
X130479000Y-102330000D02*
X135426000Y-97382600D01*
X129092000Y-102330000D02*
X130479000Y-102330000D01*
X129350000Y-108680000D02*
X128283000Y-107613000D01*
X169525000Y-92680000D02*
X174286000Y-87919400D01*
X135426000Y-97382600D02*
X157264000Y-97382600D01*
X161967000Y-92680000D02*
X169525000Y-92680000D01*
X128283000Y-107613000D02*
X128283000Y-103139000D01*
X128283000Y-103139000D02*
X129092000Y-102330000D01*
%TO.N,Net-(U6-EN)*%
X176457100Y-93279200D02*
X176290800Y-93445500D01*
X176692500Y-93043800D02*
X176457100Y-93279200D01*
X129350000Y-93440000D02*
X133997600Y-88792400D01*
X165932900Y-93445500D02*
X165573400Y-93805000D01*
X133997600Y-88792400D02*
X165577400Y-88792400D01*
X186410000Y-94077400D02*
X185376400Y-93043800D01*
X185376400Y-93043800D02*
X176692500Y-93043800D01*
X176290800Y-93445500D02*
X165932900Y-93445500D01*
X176457100Y-93279200D02*
X176290800Y-93445500D01*
%TO.N,Net-(U6-IO16)*%
X165027400Y-118928700D02*
X154838700Y-118928700D01*
X154838700Y-118928700D02*
X154750000Y-118840000D01*
%TO.N,Net-(U6-IO32)*%
X161557500Y-81880000D02*
X161558000Y-81880000D01*
X133292600Y-102197400D02*
X155599600Y-102197400D01*
X161558000Y-81880000D02*
X168057500Y-81880000D01*
X168057500Y-81880000D02*
X168058000Y-81880000D01*
X155599600Y-102197400D02*
X157101800Y-100695200D01*
X129350000Y-106140000D02*
X133292600Y-102197400D01*
%TO.N,Net-(U6-IO34)*%
X161557500Y-90430000D02*
X161557600Y-90430000D01*
X161557800Y-90430200D02*
X161558000Y-90430000D01*
X161558000Y-90430000D02*
X168057500Y-90430000D01*
X137058000Y-91980000D02*
X160008000Y-91980000D01*
X168057500Y-90430000D02*
X168058000Y-90430000D01*
X129350000Y-101060000D02*
X131445000Y-98965400D01*
X161557600Y-90430000D02*
X161557800Y-90430200D01*
X160008000Y-91980000D02*
X161557800Y-90430200D01*
X131445000Y-97593200D02*
X137058000Y-91980000D01*
X131445000Y-98965400D02*
X131445000Y-97593200D01*
%TO.N,Net-(U6-IO35)*%
X161557500Y-98980000D02*
X161557600Y-98980000D01*
X133728000Y-99790000D02*
X160748000Y-99790000D01*
X129918000Y-103600000D02*
X133728000Y-99790000D01*
X161557800Y-98980200D02*
X161558000Y-98980000D01*
X160748000Y-99790000D02*
X161557800Y-98980200D01*
X168057500Y-98980000D02*
X168058000Y-98980000D01*
X129350000Y-103600000D02*
X129918000Y-103600000D01*
X161558000Y-98980000D02*
X168057500Y-98980000D01*
X161557600Y-98980000D02*
X161557800Y-98980200D01*
%TO.N,Net-(U2-MISO)*%
X175964000Y-107405000D02*
X177482000Y-108923000D01*
X156025000Y-107405000D02*
X175964000Y-107405000D01*
X154750000Y-108680000D02*
X156025000Y-107405000D01*
%TO.N,Net-(U2-NSS)*%
X161117400Y-96351900D02*
X175829900Y-96351900D01*
X176887400Y-95294400D02*
X179058600Y-95294400D01*
X175829900Y-96351900D02*
X176887400Y-95294400D01*
X156826100Y-98006900D02*
X159462400Y-98006900D01*
X179058600Y-95294400D02*
X179946400Y-96182200D01*
X159462400Y-98006900D02*
X161117400Y-96351900D01*
%TO.N,Net-(U2-SCK)*%
X190250000Y-127750000D02*
X182500000Y-135500000D01*
X190250000Y-111500000D02*
X190250000Y-127750000D01*
X179750000Y-104500000D02*
X183500000Y-108250000D01*
X152500000Y-135500000D02*
X152000000Y-136000000D01*
X183500000Y-108250000D02*
X187000000Y-108250000D01*
X152250000Y-112000000D02*
X153970000Y-112000000D01*
X182500000Y-135500000D02*
X152500000Y-135500000D01*
X187000000Y-108250000D02*
X190250000Y-111500000D01*
X153970000Y-112000000D02*
X154750000Y-111220000D01*
%TO.N,Net-(U2-~{RESET})*%
X165158000Y-117570000D02*
X130620000Y-117570000D01*
X130620000Y-117570000D02*
X129350000Y-118840000D01*
X165572000Y-117156000D02*
X165158000Y-117570000D01*
%TO.N,Net-(U2-DIO0)*%
X156297000Y-119833000D02*
X175558000Y-119833000D01*
X154750000Y-121380000D02*
X156297000Y-119833000D01*
%TO.N,Net-(U2-MOSI)*%
X180167000Y-87282600D02*
X173046000Y-87282600D01*
X181023000Y-88139000D02*
X180167000Y-87282600D01*
X173046000Y-87282600D02*
X168148000Y-92180000D01*
X168148000Y-92180000D02*
X161302000Y-92180000D01*
X161302000Y-92180000D02*
X160042000Y-93440000D01*
X160042000Y-93440000D02*
X154750000Y-93440000D01*
%TO.N,Net-(U3-DIN)*%
X184250000Y-95000000D02*
X187000000Y-95000000D01*
X181000000Y-98250000D02*
X184250000Y-95000000D01*
X173923000Y-129126000D02*
X171509000Y-131540000D01*
X188500000Y-93500000D02*
X188500000Y-84000000D01*
X186000000Y-81500000D02*
X182500000Y-81500000D01*
X171509000Y-131540000D02*
X154750000Y-131540000D01*
X188500000Y-84000000D02*
X186000000Y-81500000D01*
X187000000Y-95000000D02*
X188500000Y-93500000D01*
%TO.N,Net-(U3-LRCLK)*%
X182099000Y-128000000D02*
X160986000Y-128000000D01*
X158716000Y-130270000D02*
X130620000Y-130270000D01*
X130620000Y-130270000D02*
X129350000Y-131540000D01*
X183360000Y-126739000D02*
X182099000Y-128000000D01*
X160986000Y-128000000D02*
X158716000Y-130270000D01*
%TO.N,Net-(U5-TFT_CS)*%
X135816000Y-94077400D02*
X137719000Y-95980000D01*
X137719000Y-95980000D02*
X154750000Y-95980000D01*
%TO.N,Net-(U5-RESET)*%
X153673000Y-70323800D02*
X151634000Y-68285000D01*
X133532500Y-68285000D02*
X133532000Y-68285000D01*
X151634000Y-68285000D02*
X133532500Y-68285000D01*
%TO.N,Net-(J1-In)*%
X177259000Y-95923000D02*
X180954000Y-99618100D01*
X180954000Y-99618100D02*
X186404000Y-99618100D01*
%TD*%
M02*
